<svg xmlns="http://www.w3.org/2000/svg" viewBox="0 0 500 500"><g id="freepik--Floor--inject-2"><ellipse cx="248.29" cy="341.16" rx="217.7" ry="129.18" style="fill:#f5f5f5"></ellipse></g><g id="freepik--Shadows--inject-2"><path id="freepik--freepik--shadow--inject-54--inject-2" d="M295.21,308.32,164.56,383.79a5.59,5.59,0,0,1-5.07,0L144,375.25c-1.4-.81-1.4-2.12,0-2.92l130.69-75.48a5.59,5.59,0,0,1,5.07,0l15.5,8.54C296.61,306.25,296.61,307.51,295.21,308.32Z" style="fill:#e0e0e0"></path><ellipse cx="333.29" cy="400.31" rx="51.53" ry="28" style="fill:#e0e0e0"></ellipse><ellipse cx="402.88" cy="315.87" rx="21.88" ry="11.89" style="fill:#e0e0e0"></ellipse><ellipse cx="89.21" cy="322.25" rx="34.8" ry="18.91" style="fill:#e0e0e0"></ellipse></g><g id="freepik--Clouds--inject-2"><path d="M373.89,65.08,380.63,69V63.62c0-3.11,2.54-4.18,5.65-2.39l.23.14a11.7,11.7,0,0,1,3.61,3.38c.17-5.23,4.58-7,10-3.9l.41.24c5.49,3.17,10,10.26,10,15.74v9.36l6.22,3.6c2.64,1.52,4.8,4.92,4.8,7.56s-2.16,3.54-4.8,2l-8.28-4.78h0l-16.23-9.37h0L373.89,74.66c-2.64-1.52-4.8-4.92-4.8-7.56S371.25,63.56,373.89,65.08Z" style="fill:#e0e0e0"></path><path d="M421.57,55.05l4.65,2.68V54c0-2.14,1.76-2.88,3.9-1.64l.16.09a8.13,8.13,0,0,1,2.49,2.34c.12-3.61,3.16-4.83,6.87-2.69l.28.16c3.79,2.19,6.89,7.07,6.89,10.86v6.45l4.29,2.48a6.88,6.88,0,0,1,3.3,5.22c0,1.82-1.48,2.44-3.3,1.39l-5.72-3.29h0L434.18,69h0l-12.61-7.28a6.86,6.86,0,0,1-3.3-5.21C418.27,54.63,419.75,54,421.57,55.05Z" style="fill:#e0e0e0"></path></g><g id="freepik--Tree--inject-2"><path d="M78.75,202.16a9.74,9.74,0,0,1,5.23.94c3.14,1.52,5.74,3.94,8.53,6s6,4,9.46,4.09,7.25-2.06,7.88-5.49a4.87,4.87,0,0,1,.45-1.75,2.55,2.55,0,0,1,3-.77,16.73,16.73,0,0,1,2.87,1.66c3.53,2.08,8,1.61,12,1,3.37-.49,7.63-2,7.62-5.39,0-2.22-2-3.87-3.48-5.48s-2.78-4.2-1.38-5.93a4.12,4.12,0,0,1,2-1.2c4.22-1.37,9.39.46,13-2.18,2.64-2,3.26-6,1.87-8.93a11.38,11.38,0,0,0-7.6-5.79c-2.83-.72-6.43-1.05-7.49-3.78-.92-2.39.94-5,3-6.44s4.63-2.5,6.09-4.6a7.33,7.33,0,0,0,.2-7.56,9.26,9.26,0,0,0-6.35-4.36,14.17,14.17,0,0,1-3.86-.84c-1.18-.6-2.07-2.09-1.43-3.25.38-.7,1.19-1.06,1.65-1.71.89-1.25.12-3.11-1.14-4a15.56,15.56,0,0,0-4.31-1.65c-3.06-1-6-4-5.12-7.08s5.34-4.26,6.64-7.36c1.16-2.73-.67-5.93-3.13-7.6s-5.52-2.3-8.2-3.57-5.28-3.51-5.5-6.48,2-5.59,3.91-8,3.43-5.79,1.81-8.36-5-2.62-7.81-3.51a12.65,12.65,0,0,1-7.69-6.93c-.74-1.72-1.1-3.59-2-5.23-2.72-5.11-9.72-7.34-15.1-6.72-2.82.38-3.76,1.38-5.13,3.48-.79,1.23-1.6,1.85-1.88,3.54-.41,2.47.9,5.6-1.43,7.49-3.54,2.86-9-1-8.76,5.41a26.78,26.78,0,0,0,1.19,8c1,2.69,2.89,3.85,1.29,6.87-2.08,3.9-3.44,3.88-7.6,3.87-3,0-5.53-.17-7.74,2.12-3.89,4-1.58,7.65,1.87,10.75,3.93,3.52,1.85,5.07,1.34,9.63-.25,2.2.25,2.87-1.71,4.33-3.72,2.76-5.79,1.83-4.75,7.23,1,4.93-.52,3.24-4.79,5.08-3.79,1.63-6.29,5.71-9.36,8.25-2,1.64-5,2.9-5.16,5.77-.36,5.5,6.48,4.3,9.73,5.61,5.31,2.15,3.73,9.11-.42,11.72-4.39,2.75-10.79,3.78-11.14,10.07-.27,4.83,2.47,5.9,6.22,7.51,3,1.29,2.61,1.67,2.6,5.24,0,7.2,2.42,9.24,9.52,8.06,1.94-.32,4.91-1.14,6.85-.56,2.71.82,1.8,1.49,1.87,3.76.2,5.81,7,4.17,9.83,1.68C70.11,205.93,74.26,202.6,78.75,202.16Z" style="fill:#43B0B2"></path><path d="M132.86,189.9c3.24-1.05,7-.23,10.24-1a39.84,39.84,0,0,0-5.74-.9A16.25,16.25,0,0,0,125,192.91a11.22,11.22,0,0,1,2.49,7.42c-8,2.18-16-8.6-23.62-5.32.47,3.89,0,9.12-3.77,10-2.23.5-4.47-1-5.85-2.81s-2.23-4-3.62-5.82A12.32,12.32,0,0,0,74.27,194c-2.08,1.51-4.68,3.79-6.75,2.28-2.23-1.61-.87-6-3.33-7.21-1.64-.82-3.93.47-5.3-.73a3.69,3.69,0,0,1-.94-2c-1-4.11-1.82-8.86.77-12.2,2.3-3,7.17-4.8,6.65-8.52-.45-3.18-4.49-4.15-7.69-4.52s-7.23-1.87-7.07-5.08,4.43-4.67,5.06-7.76c.26-1.32-.18-2.79.42-4,.91-1.81,3.51-1.88,5-3.22,2.73-2.42.61-6.94,1.38-10.5.55-2.52,2.59-4.5,3.26-7,1.36-5-3.17-9.7-7.9-11.73a29.14,29.14,0,0,1-5.36-2.52l-.17-.13c.11,2.25,1.78,4.34,3.88,6.22,3.93,3.52,1.85,5.07,1.34,9.63-.25,2.2.25,2.87-1.71,4.33-3.72,2.76-5.79,1.83-4.75,7.23,1,4.93-.52,3.24-4.79,5.08-3.79,1.63-6.29,5.71-9.36,8.25-2,1.64-5,2.9-5.16,5.77-.36,5.5,6.48,4.3,9.73,5.61,5.31,2.15,3.73,9.11-.42,11.72-4.39,2.75-10.79,3.78-11.14,10.07-.27,4.83,2.47,5.9,6.22,7.51,3,1.29,2.61,1.67,2.6,5.24,0,7.2,2.42,9.24,9.52,8.06,1.94-.32,4.91-1.14,6.85-.56,2.71.82,1.8,1.49,1.87,3.76.2,5.81,7,4.17,9.83,1.68,3.3-2.86,7.45-6.19,11.93-6.63a9.74,9.74,0,0,1,5.23.94c3.14,1.52,5.74,3.94,8.53,6s6,4,9.46,4.09,7.25-2.06,7.88-5.49a4.87,4.87,0,0,1,.45-1.75,2.55,2.55,0,0,1,3-.77,16.73,16.73,0,0,1,2.87,1.66c3.53,2.08,8,1.61,12,1,3.37-.49,7.63-2,7.62-5.39,0-2.22-2-3.87-3.48-5.48s-2.78-4.2-1.38-5.93A4.16,4.16,0,0,1,132.86,189.9Z" style="opacity:0.15000000596046448;isolation:isolate"></path><path d="M64.75,135.09l21.86,43.34V158.49l2.23-51.83,3.23,51.83V171.9l24-42-24,51.56V325.7a1.38,1.38,0,0,1-.8,1.11,4.3,4.3,0,0,1-3.86,0,1.34,1.34,0,0,1-.8-1.11V189.49Z" style="fill:#455a64"></path></g><g id="freepik--Locator--inject-2"><path d="M407.56,142.52c-6-3.47-11.5-3.6-15.43-1L384.48,146c-4.72,2.22-7.65,7.87-7.51,16.1v3.35c.23,13.81,19.92,52,22.36,56.71l-.44.47.53-.3.16.3s.47-.4,1.27-1.13l6.71-3.87s21.66-17.85,21.66-32.52v-3.35C429.22,167,419.52,149.43,407.56,142.52Zm-9,17.51a24,24,0,0,1,11.14,18.59,13.27,13.27,0,0,1-.17,2.34,11.84,11.84,0,0,1-2-.92,23.9,23.9,0,0,1-10.78-18.76h-.06a12.66,12.66,0,0,1,.17-2A14.17,14.17,0,0,1,398.55,160Z" style="fill:#43B0B2"></path><path d="M377,165.4c.25,14.73,22.61,57.18,22.61,57.18S421,204.42,420.72,189.7v-3.35c-.25-14.73-10.24-32.11-22.32-38.82s-21.68-.22-21.43,14.52Zm10.85,1.07c-.11-6.86,4.7-9.79,10.73-6.44a24,24,0,0,1,11.14,18.59c.12,6.86-4.69,9.79-10.73,6.44A24,24,0,0,1,387.82,166.47Z" style="opacity:0.2;isolation:isolate"></path></g><g id="freepik--Device--inject-2"><path d="M274.83,58.22l-104.1,60.6a10.07,10.07,0,0,0-5,8.71V371.91a3.7,3.7,0,0,0,5.57,3.2l102.87-59.88a10.32,10.32,0,0,0,5.13-8.93V60.79A3,3,0,0,0,274.83,58.22Z" style="fill:#455a64"></path><path d="M279.29,60.78v.33c0-.19,0-.38,0-.57A1,1,0,0,1,279.29,60.78Z" style="fill:#37474f"></path><path d="M271.72,93,173.91,149.9a7.49,7.49,0,0,0-3.72,6.47V338.51a1.81,1.81,0,0,0,2.73,1.56l98.66-57.37a5.76,5.76,0,0,0,2.88-5V94.61A1.82,1.82,0,0,0,271.72,93Z" style="fill:#fff"></path><path d="M171.28,375.11a2.77,2.77,0,0,1-.49.24C171,375.27,171.12,375.21,171.28,375.11Z" style="fill:#37474f"></path><path d="M279.23,60.15a3,3,0,0,0-4.4-1.93l-104.09,60.6a10.13,10.13,0,0,0-5,8.7V371.91a3.72,3.72,0,0,0,5.07,3.45c-5.77,2.84-13.25-1.87-13.25-1.87a11.92,11.92,0,0,1-6.39-10.74V118.37a10.12,10.12,0,0,1,5-8.71L260.26,49.07s4.25-2.69,11.66,2C271.92,51.07,278.53,54.6,279.23,60.15Z" style="fill:#263238"></path><path d="M279.23,60.15a3,3,0,0,0-4.4-1.93l-104.09,60.6a9.92,9.92,0,0,0-3.45,3.33l-14.83-8.74a10.05,10.05,0,0,1,3.69-3.75L260.26,49.07s4.25-2.69,11.66,2C271.92,51.07,278.53,54.6,279.23,60.15Z" style="fill:#37474f"></path><path d="M208.8,118.61a8.08,8.08,0,0,1-3.91,6.16c-2.16,1.25-3.91.51-3.91-1.65a8.12,8.12,0,0,1,3.91-6.17C207.05,115.71,208.8,116.45,208.8,118.61Z" style="fill:#37474f"></path><path d="M229.35,325.57c0,3.89-3.15,8.85-7,11.1s-7,.91-7-3,3.15-8.85,7-11.09S229.35,321.69,229.35,325.57Z" style="fill:#37474f"></path><path d="M154.75,160.29a7,7,0,0,0,3.38,5.34c1.87,1.08,3.39.44,3.39-1.43a7,7,0,0,0-3.39-5.34C156.26,157.78,154.75,158.42,154.75,160.29Z" style="fill:#455a64"></path><path d="M154.75,183.11a7,7,0,0,0,3.38,5.34c1.87,1.08,3.39.44,3.39-1.43a7,7,0,0,0-3.39-5.34C156.26,180.6,154.75,181.24,154.75,183.11Z" style="fill:#455a64"></path><path d="M224.12,98.54a3.75,3.75,0,0,1-1.81,2.86c-1,.58-1.81.24-1.81-.76a3.77,3.77,0,0,1,1.81-2.86C223.31,97.2,224.12,97.54,224.12,98.54Z" style="fill:#37474f"></path><path d="M216.4,117.11l24.38-14.19a4.28,4.28,0,0,0,2.12-3.69h0a1.88,1.88,0,0,0-2.83-1.63l-24.39,14.19a4.28,4.28,0,0,0-2.12,3.69h0A1.89,1.89,0,0,0,216.4,117.11Z" style="fill:#37474f"></path><path d="M198.59,135.55V180.7a9.19,9.19,0,0,1-1.91,5.62L170.2,220.91V156.37a7.46,7.46,0,0,1,3.71-6.47Z" style="fill:#e0e0e0"></path><path d="M207.87,180.38,237,163.48a6.2,6.2,0,0,0,3.07-5.35V111.46l-34.94,20.32v47A1.85,1.85,0,0,0,207.87,180.38Z" style="fill:#e0e0e0"></path><path d="M240,172.48v26.93a3.23,3.23,0,0,1-1.6,2.78L219.9,213a2.82,2.82,0,0,0-1.39,2.43v17.52a3.41,3.41,0,0,1-1.69,2.93l-10.21,5.93a1,1,0,0,1-1.53-.89V193a4.24,4.24,0,0,1,2.12-3.68L238,171.34A1.32,1.32,0,0,1,240,172.48Z" style="fill:#e0e0e0"></path><path d="M223.55,215.45l15.37-8.95a.74.74,0,0,1,1.11.64v13.68a2.65,2.65,0,0,1-1.32,2.29l-15,8.73a.8.8,0,0,1-1.19-.69V217.28A2.12,2.12,0,0,1,223.55,215.45Z" style="fill:#e0e0e0"></path><path d="M223.55,241.76l15.37-8.95a.74.74,0,0,1,1.11.63v13.68a2.63,2.63,0,0,1-1.32,2.29l-15,8.73a.79.79,0,0,1-1.19-.69V243.59A2.11,2.11,0,0,1,223.55,241.76Z" style="fill:#e0e0e0"></path><path d="M223.55,262.72l15.37-9a.74.74,0,0,1,1.11.64v22a2.65,2.65,0,0,1-1.32,2.29l-15,8.73a.79.79,0,0,1-1.19-.69V264.55A2.12,2.12,0,0,1,223.55,262.72Z" style="fill:#e0e0e0"></path><path d="M243.82,286.72v12.13L207.49,320V307.62a4,4,0,0,1,2-3.46l32.81-18.31A1,1,0,0,1,243.82,286.72Z" style="fill:#e0e0e0"></path><path d="M198.59,197.88v57.29a4.75,4.75,0,0,1-2.37,4.1l-26,15.13V232.58l27-35.19A.8.8,0,0,1,198.59,197.88Z" style="fill:#e0e0e0"></path><path d="M274.47,94.61v27L249.24,136a1.44,1.44,0,0,1-2.16-1.25V107.35L271.72,93A1.83,1.83,0,0,1,274.47,94.61Z" style="fill:#e0e0e0"></path><path d="M274.47,138.41v63.88l-25.8,15a1.06,1.06,0,0,1-1.59-.91V167.45a6.29,6.29,0,0,1,1.94-4.54Z" style="fill:#e0e0e0"></path><path d="M274.46,125.38l-26,16.07a2.92,2.92,0,0,0-1.39,2.49v10.28a.87.87,0,0,0,1.48.63l25.91-24.63Z" style="fill:#e0e0e0"></path><path d="M218.51,246.85V288a4.15,4.15,0,0,1-2.07,3.59L184.77,310a1,1,0,0,1-1.5-.87V277.34a2.68,2.68,0,0,1,1.32-2.31l19.16-11.17a2.66,2.66,0,0,0,1.33-2.31v-7.68a2.76,2.76,0,0,1,1.37-2.39l10-5.81A1.36,1.36,0,0,1,218.51,246.85Z" style="fill:#e0e0e0"></path><path d="M200.57,311.87V324l-27.66,16.08a1.81,1.81,0,0,1-2.71-1.58V283.42l3.49-2a1,1,0,0,1,1.48.86v38.53a1.5,1.5,0,0,0,2.23,1.31l20.8-11.6A1.59,1.59,0,0,1,200.57,311.87Z" style="fill:#e0e0e0"></path><path d="M274.47,212.11v63.25L251.21,289a1.68,1.68,0,0,1-2.54-1.45V229.64a4.38,4.38,0,0,1,2.16-3.76Z" style="fill:#e0e0e0"></path><path d="M179.71,315.87h-1V275.26a3.18,3.18,0,0,1,1.51-2.69L201,260.07a2.09,2.09,0,0,0,1-1.76V189.53a4,4,0,0,1,2-3.45l37.26-22.36a4.47,4.47,0,0,0,2.16-3.81V139.48h1v20.43a5.46,5.46,0,0,1-2.65,4.66l-37.25,22.36a3,3,0,0,0-1.47,2.6v68.78a3.09,3.09,0,0,1-1.48,2.62l-20.73,12.5a2.13,2.13,0,0,0-1,1.83Z" style="fill:#43B0B2"></path><path d="M179.71,315.87h-1V275.26a3.18,3.18,0,0,1,1.51-2.69L201,260.07a2.09,2.09,0,0,0,1-1.76V189.53a4,4,0,0,1,2-3.45l37.26-22.36a4.47,4.47,0,0,0,2.16-3.81V139.48h1v20.43a5.46,5.46,0,0,1-2.65,4.66l-37.25,22.36a3,3,0,0,0-1.47,2.6v68.78a3.09,3.09,0,0,1-1.48,2.62l-20.73,12.5a2.13,2.13,0,0,0-1,1.83Z" style="opacity:0.4"></path><path d="M181.91,314a5.62,5.62,0,0,1-2.7,4.27c-1.5.86-2.71.35-2.71-1.15a5.59,5.59,0,0,1,2.71-4.26C180.7,312,181.91,312.51,181.91,314Z" style="fill:#43B0B2"></path><path d="M246.43,137.92a5.64,5.64,0,0,1-2.7,4.27c-1.5.86-2.71.35-2.71-1.15a5.59,5.59,0,0,1,2.71-4.26C245.22,135.92,246.43,136.43,246.43,137.92Z" style="fill:#43B0B2"></path><path d="M252.37,122.26h0a13.69,13.69,0,0,0,2.16-5.61c.57-4.87-3.19-7-8.38-4.74s-9.88,8-10.45,12.89a5.32,5.32,0,0,0,1,4.22h0l.06.05a3.3,3.3,0,0,0,.52.47l5.44,4.91c.36.32,1.17,0,1.64-.71l7.17-10.33c.29-.38.56-.76.81-1.15Zm-6.73-6c2.62-1.14,4.51-.07,4.23,2.39s-2.64,5.37-5.26,6.5-4.51.07-4.23-2.39S243,117.41,245.64,116.28Z" style="fill:#43B0B2"></path><path d="M220.47,249.36l-10,5.76a1.76,1.76,0,0,0-.89,1.54v11.08a.41.41,0,0,0,.61.36l3.4-2,1.18,2a.17.17,0,0,0,.3,0l1.08-3.42,4-2.28a2.18,2.18,0,0,0,1.08-1.87V249.78A.48.48,0,0,0,220.47,249.36Z" style="fill:#43B0B2"></path><path d="M212.72,261v1.17l-.62.35v-1.16l-1.3-1.4.66-.38,1,1.05,1-2.18.6-.35Z" style="fill:#fff"></path><path d="M214.52,261a.56.56,0,0,1-.48-.18.81.81,0,0,1-.17-.57,1.82,1.82,0,0,1,.17-.77,2.6,2.6,0,0,1,.48-.74,3,3,0,0,1,.69-.56,1.58,1.58,0,0,1,.7-.24.65.65,0,0,1,.48.18.86.86,0,0,1,.17.57,2,2,0,0,1-.17.77,2.87,2.87,0,0,1-1.18,1.31A1.37,1.37,0,0,1,214.52,261Zm1.23-1.27A1.27,1.27,0,0,0,216,259q0-.36-.21-.45a.59.59,0,0,0-.54.09,1.52,1.52,0,0,0-.54.53,1.32,1.32,0,0,0-.21.69c0,.24.07.39.21.46a.6.6,0,0,0,.54-.1A1.44,1.44,0,0,0,215.75,259.7Z" style="fill:#fff"></path><path d="M219.58,255.66v2.53l-.56.32v-.32a2.67,2.67,0,0,1-.36.47,1.93,1.93,0,0,1-.46.35.94.94,0,0,1-.8.18c-.19-.07-.29-.3-.29-.66v-1.45l.59-.34v1.36c0,.23.05.37.16.42s.25,0,.44-.08a1.38,1.38,0,0,0,.5-.49,1.3,1.3,0,0,0,.19-.67V256Z" style="fill:#fff"></path></g><g id="freepik--Character--inject-2"><path d="M358.66,385.58a3.54,3.54,0,0,1,.47,1.76,38.67,38.67,0,0,1,0,5.6c-.17.86-2,2.11-4.33,1.85s-3.89-2-5-3.77-6.14-7.74-7.05-9.19-2.33-5.3-.56-6.88c1.49-1.33,7.07,1.71,8.56,3.39S358.66,385.58,358.66,385.58Z" style="fill:#263238"></path><path d="M334.91,403.22A8.2,8.2,0,0,1,336,406c.36,1.61.94,5.47.64,6.63-.15.56-2.15,2-4.12,2.1-1.17.06-2.58.11-3.72.15a5.53,5.53,0,0,0-2.42.62,65.77,65.77,0,0,1-6.29,2.84c-3.74,1.43-8.65,2-11,1.49s-5.14-2-6.26-3.46a2.16,2.16,0,0,1,.11-2.43c2.89-2.41,7.69-3.6,10.66-4.83a77,77,0,0,0,11.57-6.25C325.9,402.3,334.91,403.22,334.91,403.22Z" style="fill:#263238"></path><path d="M334.91,397.73v5.49a6.37,6.37,0,0,1-4.94,2.26,4.83,4.83,0,0,1-4.8-2.6,44,44,0,0,0,.13-5.15Z" style="fill:#ffa8a7"></path><path d="M358.66,382.27v3.31s-.49,1.74-3.81,1.85a6.1,6.1,0,0,1-4.07-1.26l-.69-4.87Z" style="fill:#ffa8a7"></path><path d="M314.56,280.81s1.17,52.4,2.69,62c1.05,6.57,8,56.34,8,56.34a10.41,10.41,0,0,0,9.82-.08s0-1.75.24-4.6,2.41-27.16,2.19-36.3a43.8,43.8,0,0,0-3.08-15.48l3.08-45.18,1.43.18s-.07,4.82.53,13.38c0,0,1.14,17.25,1.54,20.64.76,6.32,5,29.33,6.24,35.43,1.12,5.47,2.94,15.57,2.94,15.57,2.67,2.66,8.49.56,8.49.56s.29-6.86.59-11.05,1.58-23,1.07-27.94c-.71-6.88-3.52-13.5-3.27-15.25,1.46-10.13,1.6-53.25,1.6-53.25Z" style="fill:#43B0B2"></path><path d="M314.56,280.81s1.17,52.4,2.69,62c1.05,6.57,8,56.34,8,56.34a10.41,10.41,0,0,0,9.82-.08s0-1.75.24-4.6,2.41-27.16,2.19-36.3a43.8,43.8,0,0,0-3.08-15.48l3.08-45.18,1.43.18s-.07,4.82.53,13.38c0,0,1.14,17.25,1.54,20.64.76,6.32,5,29.33,6.24,35.43,1.12,5.47,2.94,15.57,2.94,15.57,2.67,2.66,8.49.56,8.49.56s.29-6.86.59-11.05,1.58-23,1.07-27.94c-.71-6.88-3.52-13.5-3.27-15.25,1.46-10.13,1.6-53.25,1.6-53.25Z" style="opacity:0.4"></path><path d="M337.5,297.46l1.43.19s-.08,5.12.56,14.22c0,0,.28,4.34.62,9.2l2.34-23.17a37.5,37.5,0,0,0,11.15-10c-9.5,7.28-16.1,9.53-16.1,9.53Z" style="opacity:0.4"></path><path d="M361.23,218.62a11.06,11.06,0,0,0-5.52-4l1.76,53.33s13-5.8,13.4-9.24C371.26,255.63,363.64,222,361.23,218.62Z" style="fill:#37474f"></path><path d="M317.7,189.7c-.06-2.21-.06-5,0-6.06.26-3.95,1.44-5.52,1.44-5.52,4.83-6.31,22.53-4.89,23.79-1.34s3.72,22.93-1.74,26.39c.56,3,2.13,10.42,2.13,10.42-4.41,4-13.65,2.73-13.65,2.73.27-1.35-1-6.76-1.64-9.51-3.78.45-7.07.4-8.14-.4h0a1.11,1.11,0,0,1-.22-.21c-.82-1.17-1.4-5.62-1.72-11-1,.13-2.55.26-2.75-.13S316.77,191.34,317.7,189.7Z" style="fill:#ffa8a7"></path><path d="M327.82,190.06s-.5-3.47,3-3.8,5.64,4.12,3.93,7.37-3.93,3.46-3.93,3.46a30.91,30.91,0,0,0,0,6.46,2.45,2.45,0,0,0,2.52,2.08c2.5-.07,7-.44,10.32-2.06,4.85-2.37,8.16-7.28,10-14.26s2.13-13.54-3-13.78c0,0-.05-1.95,2.83-2.72,0,0-3.21-1.47-4.59,1.21a7.82,7.82,0,0,0-5.48-6.67c-5.12-1.53-11.47.75-17,2s-12.8.59-13.43,1.38-3.34,16.26,12,15.54C324.94,186.24,325.65,190,327.82,190.06Z" style="fill:#263238"></path><path d="M319.89,206.41c1.07.8,4.36.85,8.14.4a6.4,6.4,0,0,0,2-2C329.75,204.91,323.72,207.52,319.89,206.41Z" style="fill:#f28f8f"></path><path d="M314.44,244.29V281s13.1,5.16,25.52,3.33,19-8.74,19-8.74.55-48.42-.34-54.3-4.86-8.67-7.9-9.34-7.59.59-7.59.59a24.91,24.91,0,0,1-13.23,3c-3.49,1.16-7.31,3-10.5,4.2C310.31,223.29,314.44,244.29,314.44,244.29Z" style="fill:#43B0B2"></path><path d="M314.44,244.29V281s13.1,5.16,25.52,3.33,19-8.74,19-8.74.55-48.42-.34-54.3-4.86-8.67-7.9-9.34-7.59.59-7.59.59a24.91,24.91,0,0,1-13.23,3c-3.49,1.16-7.31,3-10.5,4.2C310.31,223.29,314.44,244.29,314.44,244.29Z" style="fill:#fff;opacity:0.4"></path><polygon points="290.3 241.82 281.93 216.67 295.25 209.26 296.31 209.51 303.61 234.41 290.3 241.82" style="fill:#37474f"></polygon><polygon points="291.36 242.07 282.99 216.92 296.31 209.51 304.68 234.66 291.36 242.07" style="fill:#455a64"></polygon><polygon points="291.65 239.5 284.75 218.74 296.22 212.29 303.12 233.05 291.65 239.5" style="fill:#fff"></polygon><path d="M284.28,222.88s.64-.5.94,1.29,2,8.11,5,10.14c0,0,.67.28.69-.32a14.13,14.13,0,0,1,.67-4.11c.6-1.56,2.18-2.62,2.92-2.35s-.07,3.12,0,4.21,1.54,3.61,1.61,4.78-.12,2,0,2.55a44.78,44.78,0,0,0,3.49,4.13l-6.51,8.24s-4.23-5.62-5.32-6.73-3-3.29-3.54-5.27a58.42,58.42,0,0,1-1.66-8.49C282.57,229.24,282.55,223.42,284.28,222.88Z" style="fill:#ffa8a7"></path><path d="M322,218.67l4.26-.59s3.37.19,2.57,10.29-10.85,37.42-13.36,40.74c-3.37,4.46-7.23,1.75-8,.72s-9.16-10.47-14.26-18.39c0,0,1.19-7.47,6.93-8.32L306.8,250s2.06-7.71,4.22-16C313,226.56,315,220.25,322,218.67Z" style="fill:#37474f"></path></g></svg>