<?xml version="1.0" encoding="UTF-8" standalone="no"?>
<!-- Created with Inkscape (http://www.inkscape.org/) -->

<svg
   version="1.1"
   id="svg2"
   width="1066.6667"
   height="1066.6667"
   viewBox="0 0 1066.6667 1066.6667"
   sodipodi:docname="maps.eps"
   xmlns:inkscape="http://www.inkscape.org/namespaces/inkscape"
   xmlns:sodipodi="http://sodipodi.sourceforge.net/DTD/sodipodi-0.dtd"
   xmlns="http://www.w3.org/2000/svg"
   xmlns:svg="http://www.w3.org/2000/svg">
  <defs
     id="defs6" />
  <sodipodi:namedview
     id="namedview4"
     pagecolor="#ffffff"
     bordercolor="#000000"
     borderopacity="0.25"
     inkscape:showpageshadow="2"
     inkscape:pageopacity="0.0"
     inkscape:pagecheckerboard="0"
     inkscape:deskcolor="#d1d1d1" />
  <g
     id="g8"
     inkscape:groupmode="layer"
     inkscape:label="ink_ext_XXXXXX"
     transform="matrix(1.3333333,0,0,-1.3333333,0,1066.6667)">
    <g
       id="g10"
       transform="scale(0.1)">
      <path
         d="M 0,8000 H 8000 V 0 H 0 v 8000"
         style="fill:#ffffff;fill-opacity:1;fill-rule:evenodd;stroke:none"
         id="path12" />
      <path
         d="M 0,2192.3 H 8000 V 2075.22 H 0 v 117.08"
         style="fill:#3f87cf;fill-opacity:1;fill-rule:evenodd;stroke:none"
         id="path14" />
      <path
         d="m 1002.54,2739.74 v -617.52 l 34.6,-47 H 663.629 l 28.383,47 h 0.883 v 373.53 l -18.625,51.45 h 66.535 -21.285 -25.743 c -6.195,75.41 -70.082,135.74 -146.371,135.74 -78.082,0 -141.078,-60.33 -147.273,-135.74 h -25.738 -22.176 67.429 l -18.636,-51.45 v -373.53 h 0.89 l 33.707,-47 H 303.414 160.566 62.9727 l 27.5117,47 v 95.83 284.8 28.38 14.18 173.02 21.31 61.2 8 L 9.75,2871.92 H 7.08984 v 2.67 3.54 H 90.4844 v 61.23 16.82 14.21 9.76 H 1002.54 v -9.76 -14.21 -16.82 -61.23 h 84.29 v -1.78 -4.43 h -4.44 l -79.85,-62.98 v -8 -61.2"
         style="fill:#3f87cf;fill-opacity:1;fill-rule:evenodd;stroke:none"
         id="path16" />
      <path
         d="m 1368.08,2100.93 h -30.17 v 234.23 c 0,71.86 -105.58,130.42 -105.58,130.42 0,0 -105.58,-58.56 -105.58,-130.42 v -234.23 h -26.61 v 146.39 10.64 61.24 10.65 163.25 h 267.94 v -163.25 -10.65 -61.24 -10.64 z m 334.47,0 h -27.5 v 234.23 c 0,71.86 -105.58,130.42 -105.58,130.42 0,0 -105.58,-58.56 -105.58,-130.42 v -234.23 h -30.17 v 146.39 10.64 61.24 10.65 163.25 h 268.83 v -163.25 -10.65 -61.24 -10.64 z m 334.49,0 h -23.96 v 234.23 c 0,71.86 -105.58,130.42 -105.58,130.42 0,0 -105.59,-58.56 -105.59,-130.42 v -234.23 h -34.59 v 146.39 10.64 61.24 10.65 163.25 h 269.72 v -163.25 -10.65 -61.24 -10.64 z m -912.96,770.99 h 34.62 v 34.6 h -34.62 z m 181.88,0 h 34.62 v 34.6 h -34.62 z m -104.69,228.89 c 8.89,0 15.98,-5.31 15.98,-11.5 V 2957.1 h -32.83 v 132.21 c 0,6.19 7.09,11.5 16.85,11.5 z m 66.55,0 c 8.87,0 16.85,-5.31 16.85,-11.5 V 2957.1 h -33.71 v 132.21 c 0,6.19 7.11,11.5 16.86,11.5 z m 530.55,-228.89 h 35.49 v 34.6 h -35.49 z m 181.88,0 h 34.6 v 34.6 h -34.6 z m -104.69,228.89 c 8.87,0 16.86,-5.31 16.86,-11.5 V 2957.1 h -33.71 v 132.21 c 0,6.19 7.09,11.5 16.85,11.5 z m 66.54,0 c 8.86,0 16.86,-5.31 16.86,-11.5 V 2957.1 h -33.71 v 132.21 c 0,6.19 7.09,11.5 16.85,11.5 z m 92.27,-164.13 h -257.29 v 195.19 h 257.29 v -184.54 z m -456.02,-48.8 c 26.61,-1.78 50.56,-12.42 70.09,-28.36 -19.53,15.94 -43.48,26.58 -70.09,28.36 z m -135.74,-118.87 c 3.54,63.88 53.23,114.45 116.21,118.87 -62.98,-4.42 -112.67,-55.88 -116.21,-118.87 z m 165.91,326.49 h 104.68 v -149.95 h -56.78 l -39.93,63.9 -7.97,11.51 z m -184.55,0 h 118.89 v -74.54 l -7.1,-11.51 -40.81,-63.9 h -70.98 v 1.78 z M 1028.28,2606.64 V 2493.1 h 6.2 v -417.88 h 1067.31 v 7.07 18.64 146.39 10.64 61.24 10.65 163.25 h 11.54 v 7.96 8 97.58 13.3 h -15.08 v 91.39 221.81 14.19 198.73 14.23 407.2 h 21.29 v 26.63 h -42.58 v 39.92 h -15.09 v 12.41 h -4.43 l -16.85,30.16 -17.75,31.95 -16.85,-31.95 -16.87,-30.16 h -4.44 v -12.41 h -251.96 v -39.92 h -43.47 v -26.63 h 23.95 v -407.2 -14.23 -10.65 h -104.68 l -16.87,126.89 -3.55,33.71 v 180.98 h 28.39 v 22.2 h -28.39 v 23.96 h -23.95 v -23.96 h -28.39 v -22.2 h 28.39 v -176.55 l -5.33,-38.14 -16.85,-126.89 h -118 v 10.65 14.23 407.2 h 21.3 v 26.63 h -42.6 v 39.92 h -246.65 v 12.41 h -4.43 l -16.85,30.16 -16.85,31.95 -17.75,-31.95 -15.98,-30.16 h -5.32 v -12.41 h -20.41 v -39.92 h -43.46 v -26.63 h 23.94 v -407.2 -14.23 -198.73 -14.19 -221.81 -91.39 h -10.63 v -13.3"
         style="fill:#3f87cf;fill-opacity:1;fill-rule:evenodd;stroke:none"
         id="path18" />
      <path
         d="m 5321.49,2477.11 v 0 l -9.73,18.64 c -64.78,38.16 -139.33,59.42 -220.04,59.42 -73.65,0 -143.72,-18.61 -204.06,-51.43 l -8.87,-17.77 c 62.97,35.49 135.73,56.8 212.93,56.8 85.14,0 162.35,-23.96 229.77,-65.66 z m -387.72,86.97 v 0 29.27 l -19.48,-37.29 c 6.19,3.58 12.4,5.35 19.48,8.02 z m 228.03,527.88 v 0 h -110.89 l 5.31,31.95 h 100.25 z m -112.67,-16.88 v 0 h 116.21 l 48.82,-319.4 h -215.62 l 24.86,163.27 z m -165.02,-498.61 v 0 h -185.45 l 39.04,74.53 h 185.43 z m -24.85,-49.66 v 0 h -186.32 l 16.85,32.83 h 186.31 z m -198.73,-23.96 v 0 l 50.55,-34.6 -84.26,-30.17 z m 71.84,-26.63 v 0 l -50.54,34.6 h 146.37 z m 72.75,-51.47 v 0 l -52.32,36.4 88.7,31.03 z m 690.26,151.72 v 0 h -185.41 l -38.16,74.53 h 185.44 z m -711.52,-157.92 v 0 h -149.97 l 98.48,35.49 z m -106.5,-70.97 v 0 l 55.01,-38.14 h -159.69 z m -70.96,49.7 v 0 l 50.58,-35.5 -85.17,-31.06 z m 70.96,-28.39 v 0 l -47.01,32.81 h 136.64 z m 60.34,-76.33 v 0 l 13.33,25.74 -52.37,37.25 86.97,31.06 -34.6,-68.31 z m -141.05,-86.05 v 0 l 55.01,-68.31 h -179.24 l 7.98,16.83 z m -54.14,68.3 v 0 l 37.28,-48.79 -80.76,-35.49 z m 60.33,-38.13 v 0 l -44.34,55.88 h 169.45 z m 63.9,-79.86 v 0 l -47.02,60.33 102.03,44.37 z m 668.94,369.99 v 0 h 185.44 l -16.88,32.83 h -185.4 z m 196.96,-23.07 v 0 l -50.54,-35.49 85.15,-31.06 z m -71.85,-27.52 v 0 l 50.58,34.6 h -147.3 z m -72.75,-50.59 v 0 l 51.44,35.52 -86.04,31.03 z m 21.31,-7.08 v 0 h 149.91 l -98.47,35.49 z m 105.56,-70.97 v 0 l -54.12,-38.14 h 158.81 z m 73.63,50.58 v 0 l -52.35,-36.38 86.95,-31.06 z m -73.63,-29.27 v 0 l 47.9,32.81 h -136.62 z m -71.85,-49.69 v 0 l 51.43,36.35 -85.14,30.17 z m 152.57,-112.69 v 0 l -54.1,-68.31 h 180.99 l -7.98,15.97 z m 55.91,69.2 v 0 l -39.02,-49.69 84.26,-36.36 z m -62.12,-39.03 v 0 l 45.24,55.88 h -169.45 z m -62.98,-78.08 v 0 l 46.12,58.55 -99.37,44.37 z m -574.01,411.66 v 0 59.47 l -10.67,-22.2 v -40.81 z m 19.5,5.33 v 0 75.41 h -7.99 l -3.54,-6.21 v -72.74 z m 19.53,5.31 v 0 70.1 h -11.54 v -73.64 z m 18.64,2.67 v 0 67.43 h -11.56 v -69.2 z m 18.62,3.54 v 0 63.89 h -11.53 v -64.77 z m 18.64,1.79 v 0 62.1 h -11.55 v -62.99 z m 19.51,1.75 v 0 60.35 h -11.54 v -61.23 z m 18.64,0 v 0 60.35 h -10.68 v -60.35 z m 19.5,0 v 0 60.35 h -11.53 v -60.35 z m 19.52,-0.88 v 0 61.23 h -11.5 v -60.35 z m 18.65,-0.87 v 0 62.1 h -11.55 v -61.23 z m 18.62,-2.67 v 0 64.77 h -11.54 v -62.99 z m 18.64,-3.54 v 0 68.31 h -11.56 v -66.56 z m 19.5,-4.43 v 0 72.74 h -11.52 v -69.2 z m 18.64,-3.54 v 0 76.28 h -10.66 v -73.64 z m 19.51,-7.1 v 0 69.19 L 5231,2651 h -4.44 v -78.95 z m 19.53,-6.21 v 0 39.02 l -11.53,22.18 v -56.78 z m 7.08,24.82 v 0 -27.5 c 6.21,-2.67 12.46,-5.32 17.77,-7.1 z m -351.31,235.11 v 0 l 85.15,50.58 -17.72,-114.46 z m 69.21,65.66 v 0 l -83.43,-50.56 -53.21,50.56 z m -180.13,-131.32 v 0 h 155.26 l -60.33,57.68 z m 491.51,65.66 v 0 l -78.94,47.93 16.84,-107.36 z m -69.19,65.66 v 0 l 84.3,-50.56 52.33,50.56 z m 85.18,-73.64 v 0 l -58.56,-57.68 h 153.47 z m -45.27,155.28 v 0 l -72.74,45.24 15.07,-94.93 0.89,-7.11 z m -59.45,58.55 v 0 l 72.79,-45.26 45.23,45.26 z m 72.79,-67.41 v 0 l -55.9,-55.91 h 147.24 z m -326.51,7.08 v 0 l 69.2,44.34 -15.98,-98.47 z m 57.65,60.33 v 0 l -71.87,-47.04 -47,47.04 z m -154.37,-123.32 v 0 h 137.53 l -55.03,54.12 z m 382.38,185.44 v 0 l -62.1,34.6 13.33,-79.86 z m -33.71,34.6 v 0 l 44.39,-25.74 27.48,25.74 z m 45.27,-40.83 v 0 l -41.72,-39.03 h 109.15 z m -277.71,3.53 v 0 l 57.68,37.3 h 7.98 l -10.65,-79.86 h -3.53 z m 32.81,37.3 v 0 l -43.45,-27.52 -31.06,27.52 z m -101.14,-79.86 v 0 h 99.39 l -41.7,35.48 z m 292.79,292.77 v 0 l -36.37,30.16 c 2.67,-22.19 6.21,-41.67 9.75,-58.55 z m 54.14,-43.46 v 0 l -44.39,35.49 -32.82,-34.6 0.88,-0.89 z m -36.38,44.35 v 0 l 36.38,-29.28 c -1.77,19.53 -5.32,39.92 -7.12,60.34 z m -53.24,42.56 v 0 l 43.46,-35.48 32.83,35.48 z m 23.96,47.05 v 0 l -36.36,29.27 c 1.76,-20.41 3.54,-40.83 7.08,-59.43 z m 36.37,-30.16 v 0 l -26.61,23.04 -22.19,-23.04 z m -19.52,31.94 v 0 l 39.02,-31.94 c -2.66,21.28 -4.42,43.46 -7.09,64.76 z m -47.01,37.25 v 0 l 37.25,-30.17 29.28,30.17 z m 23.04,57.69 v 0 l -38.15,31.93 c 0.89,-23.07 3.55,-45.28 5.35,-66.53 z m 51.48,-40.84 v 0 l -42.59,33.71 -31.05,-33.71 z m -33.72,41.72 v 0 l 35.48,-28.4 c -1.76,20.39 -4.43,39.93 -5.31,60.34 h -0.88 z m -39.03,31.94 v 0 l 29.27,-23.96 22.17,23.96 z m 10.64,54.1 v 0 l -32.83,26.63 c 0.88,-19.53 2.65,-39.04 3.55,-57.7 z m 47.03,-37.25 v 0 l -38.17,30.17 -27.47,-30.17 z m -29.28,38.14 v 0 l 39.03,-31.07 c -2.66,22.21 -4.43,42.62 -5.3,64.78 h -0.9 z m -43.49,33.71 v 0 l 33.71,-25.7 25.74,25.7 z m 23.07,55.02 v 0 l -35.48,29.28 c 0.88,-22.18 2.66,-43.47 3.55,-63.88 z m 46.13,-37.26 v 0 l -36.38,29.28 -28.36,-29.28 z m -27.48,38.14 v 0 l 31.95,-27.5 -4.47,57.67 z m -44.38,34.6 v 0 l 34.6,-27.5 24.86,27.5 z m 17.76,55.01 v 0 l -31.06,26.62 0.89,-11.55 v -7.08 l 0.9,-37.26 z m 45.24,-38.14 v 0 l -35.49,30.16 -31.06,-30.16 z m -28.4,38.14 v 0 l 36.4,-30.16 -3.58,63.01 z m -39.92,34.62 v 0 l 30.17,-25.74 26.61,25.74 z m 16.87,54.11 v 0 l -28.39,23.06 v -6.21 l 0.89,-4.42 v -17.76 -5.32 l 0.89,-16.85 z m 42.58,-37.27 v 0 l -32.83,28.39 -28.39,-28.39 z m -25.73,37.27 v 0 l 36.37,-31.96 -4.44,63.88 z m -41.7,35.45 v 0 l 31.94,-28.36 28.39,28.36 z m 24.85,55.02 v 0 l -31.93,26.63 1.77,-13.32 0.88,-42.57 z m 45.24,-38.13 v 0 l -35.49,31.05 -31.05,-31.05 z m -28.39,38.13 v 0 l 30.17,-24.84 -2.66,53.25 z m -39.91,34.62 v 0 l 31.05,-25.73 25.73,25.73 z m 19.52,55.9 v 0 l -30.18,26.61 0.9,-17.75 v -2.66 -18.63 -1.77 l 0.89,-13.31 z m 43.45,-39.04 v 0 l -34.59,31.93 -32.82,-31.93 z m -28.39,38.15 v 0 l 31.06,-27.51 -2.67,55.01 z m -39.02,35.49 v 0 l 30.17,-28.4 28.39,28.4 z m 23.07,52.34 v 0 l -30.17,26.61 v -31.04 l 0.88,-14.2 v -4.43 -6.22 z m 42.59,-35.49 v 0 l -35.49,29.27 -29.28,-29.27 z m -28.41,35.49 v 0 l 28.41,-24.85 -2.68,51.46 z m -44.35,37.26 v 0 l 36.38,-31.05 31.05,31.05 z m 28.4,54.12 v 0 l -29.28,24.85 v -54.12 z m 39.92,-34.6 v 0 l -32.84,28.4 -30.16,-31.95 h 63.88 z m -26.63,34.6 v 0 l 26.63,-23.07 -2.66,47.03 z m -41.69,35.48 v 0 l 34.6,-29.26 29.28,29.26 z m 23.93,52.36 v 0 l -25.68,22.18 v -47.91 z m 40.85,-34.6 v 0 l -33.72,28.38 -29.28,-29.27 h 63 z m -27.51,34.6 v 0 l 26.61,-23.07 -1.8,48.8 z m -13.34,89.6 v 0 l -25.68,24.85 v -54.12 z m 36.38,-34.6 v 0 l -29.25,28.4 -24.85,-28.4 z m -23.04,34.6 v 0 l 23.04,-21.29 -1.78,45.26 z m -39.02,37.26 v 0 l 31.92,-30.15 27.48,30.15 z m 24.8,55.02 v 0 l -24.8,24.84 v -55.9 z m 34.6,-33.71 v 0 l -27.48,26.6 -25.73,-31.06 h 53.21 z m -22.17,33.71 v 0 l 21.29,-21.3 -0.9,44.36 z m -35.48,35.49 v 0 l 29.28,-29.28 23.95,29.28 z m 21.27,53.22 v 0 l -23.02,23.97 v -49.7 z m 32.83,-34.59 v 0 l -25.7,27.51 -27.52,-29.29 h 53.22 z m -20.38,33.72 v 0 l 19.51,-21.3 -0.89,41.69 z m -35.47,36.36 v 0 l 29.23,-29.28 24.86,28.39 v 0.89 z m 19.48,38.15 v 0 l -19.48,16.87 v -34.62 z m 23.96,-20.4 v 0 l -16.87,15.07 -16.83,-15.07 z m -11.52,19.51 v 0 l 21.28,-16.86 -0.89,35.51 z m -28.39,23.97 v 0 l 22.15,-17.75 20.42,17.75 z M 5015.41,3336.82 v 0 l 34.6,27.52 c -3.55,-19.55 -6.23,-38.17 -9.78,-54.14 z m -55.01,-43.46 v 0 l 45.23,35.49 30.18,-31.95 v -0.89 l -0.9,-2.65 z m 38.14,44.35 v 0 l -39.92,-31.96 c 1.78,21.31 5.32,43.49 7.1,65.67 z m 52.37,42.56 v 0 l -43.5,-35.48 -32.83,35.48 z m -23.09,47.05 v 0 l 33.72,26.64 c -2.66,-18.68 -4.42,-38.2 -6.21,-55.02 z m -38.15,-30.16 v 0 l 28.4,23.04 21.28,-23.04 z m 20.43,31.94 v 0 l -38.17,-31.94 h -2.67 c 1.78,22.17 3.55,45.23 6.21,68.3 z m 47.9,37.25 v 0 l -39.04,-30.17 -27.5,30.17 z m -23.98,57.69 v 0 l 35.49,28.35 c -1.77,-19.49 -2.64,-40.8 -5.31,-59.41 z m -50.55,-40.84 v 0 l 40.8,33.71 32.85,-33.71 z m 33.72,41.72 v 0 l -39.03,-30.15 c 2.66,19.5 4.44,40.78 5.31,62.09 h 4.44 z m 39.03,31.94 v 0 l -29.28,-23.96 -22.19,23.96 z m -11.53,54.1 v 0 l 30.14,23.97 c -0.88,-17.76 -1.77,-35.48 -3.53,-52.36 z m -46.15,-37.25 v 0 l 36.37,30.17 28.4,-30.17 z m 29.28,38.14 v 0 l -41.69,-32.83 c 1.78,21.31 3.54,44.38 5.33,66.54 h 3.54 z m 42.59,33.71 v 0 l -33.71,-25.7 -25.74,25.7 z m -23.95,55.02 v 0 l 33.72,25.73 c -0.88,-18.63 -1.77,-39.02 -3.56,-57.67 z m -46.15,-37.26 v 0 l 38.14,29.28 26.63,-29.28 z m 29.29,38.14 v 0 l -36.38,-29.27 5.32,63.01 z m 43.46,34.6 v 0 l -33.71,-27.5 -26.59,27.5 z m -16.84,55.01 v 0 l 28.39,24.83 -0.88,-9.76 v -7.08 l -1.77,-33.71 z m -45.26,-38.14 v 0 l 35.5,30.16 30.16,-30.16 z m 27.49,38.14 v 0 l -39.03,-32.82 5.33,67.44 z m 40.85,34.62 v 0 l -31.94,-25.74 -24.84,25.74 z m -16.87,54.11 v 0 l 24.85,20.41 v -3.56 l -0.89,-4.42 v -17.76 -5.32 l -0.88,-14.18 z m -43.47,-37.27 v 0 l 33.72,28.39 28.38,-28.39 z m 25.73,37.27 v 0 l -39.06,-33.74 4.47,69.19 z m 42.59,35.45 v 0 l -33.72,-28.36 -26.62,28.36 z m -24.85,55.02 v 0 l 27.5,24.87 v -11.56 l -1.78,-39.91 z m -46.12,-38.13 v 0 l 36.37,31.05 29.28,-31.05 z m 28.38,38.13 v 0 l -33.73,-27.5 4.45,58.57 z m 39.92,34.62 v 0 l -31.05,-25.73 -25.74,25.73 z m -19.53,55.9 v 0 l 27.52,23.95 -0.88,-15.09 v -2.66 -18.63 -1.77 l -0.9,-10.65 z m -42.56,-39.04 v 0 l 34.6,31.93 32.81,-31.93 z m 27.49,38.15 v 0 l -33.7,-30.16 2.65,60.32 z m 39.92,35.49 v 0 l -31.93,-28.4 -28.4,28.4 z m -63.88,89.6 v 0 l -2.65,-7.98 0.87,7.98 z m 40.82,-37.26 v 0 l 26.61,23.95 v -28.38 l -0.88,-14.2 v -4.43 -4.45 z m -42.6,-35.49 v 0 l 34.61,29.27 29.27,-29.27 z m 28.41,35.49 v 0 l -31.06,-27.51 1.78,56.79 z m 40.8,35.48 v 0 l -33.72,-29.27 -30.16,31.05 h 63.88 z m -24.86,55.9 v 0 l 25.74,23.07 v -50.56 z m -44.35,-36.37 v 0 l 37.27,30.17 30.18,-31.95 h -67.45 z m 31.06,36.37 v 0 l -29.28,-24.84 1.77,52.35 z m 40.81,34.6 v 0 l -33.71,-28.38 -29.29,29.26 h 63 z m -63.87,91.39 v 0 -0.89 z m 80.76,-3.55 v 0 l 2.63,3.55 h 59.43 l -30.14,-31.95 -31.92,27.52 z m -41.73,-34.6 v 0 l 24.84,20.4 v -44.37 z m -40.81,-35.49 v 0 l 34.59,29.27 28.4,-29.27 z m 28.39,35.49 v 0 l -29.28,-24.85 2.67,52.34 z m 37.26,31.94 v 0 l -29.27,-25.74 -31.96,31.95 h 59.45 l 1.78,-0.89 z m -24.84,57.66 v 0 l 24.84,23.07 v -49.67 z m -36.39,-34.6 v 0 l 30.17,28.4 25.74,-28.4 z m 23.97,34.6 v 0 l -25.74,-24.83 v 5.32 l 1.77,46.14 z m 37.26,35.49 v 0 l -29.27,-28.38 -27.52,30.15 h 56.79 z m -23.08,56.79 v 0 l 23.08,23.06 v -49.68 z m -37.25,-37.28 v 0 l 31.06,30.17 25.73,-31.06 h -56.79 z m 23.95,37.28 v 0 l -23.06,-24.85 1.75,50.57 z m 36.38,34.6 v 0 l -28.4,-28.39 -25.73,29.28 h 54.13 z m -21.31,54.11 v 0 l 21.31,22.18 v -45.23 z m -34.6,-36.37 v 0 l 28.39,29.29 25.74,-29.29 z m 22.2,35.5 v 0 l -22.2,-23.97 0.89,47.91 z m 33.71,34.59 v 0 l -26.63,-27.51 -27.5,29.28 h 54.13 z m -17.73,39.92 v 0 l 17.73,14.2 v -30.16 z m -24.85,-20.4 v 0 l 17.74,15.07 15.98,-15.07 z m 13.31,19.51 v 0 l -24.86,-19.51 1.77,39.93 z m 27.49,23.97 v 0 l -21.3,-17.75 -21.27,17.75 z m 286.58,-1813.49 v 0 l -56.79,-54.09 94.94,-55.02 z m -47.04,134.86 v 0 l -41.68,-42.56 71.85,-45.24 z m -38.14,108.28 v 0 h -2.66 l -33.72,-31.95 59.46,-34.6 z m -404.56,-71.9 v 0 l 58.56,37.3 -35.47,30.12 z m -47.01,-133.06 v 0 l 79.82,52.33 -45.22,45.25 z m -50.59,-144.61 v 0 l 89.62,52.34 -52.35,50.57 z m 684.94,-636.14 h 17.74 l -133.98,259.08 c -70.08,67.43 -165.9,108.22 -270.58,108.22 -95.83,0 -182.8,-34.6 -250.22,-91.37 L 4698.66,2138.2 h 25.73 v -62.98 h -337.12 v 62.98 h 44.35 l 277.68,536.74 v 80.74 h 59.45 l 98.48,282.16 v 6.21 h 1.77 l 27.52,79.86 h -10.64 v 74.52 h 31.05 v 14.18 h -46.15 v 80.75 h 70.1 c 52.34,409.88 77.19,1114.33 85.17,1339.67 h -1.78 v 17.75 h 2.67 l 0.88,43.48 h -12.41 V 4767 h 31.95 v 89.62 h 37.25 v 126.86 h 12.42 v 116.22 h 14.21 v -116.22 h 13.29 v -126.86 h 36.37 V 4767 h 32.84 v -72.74 h -13.3 l 1.77,-43.48 h 1.77 v -17.75 h -0.88 c 4.44,-126.87 13.3,-407.21 31.06,-701.78 l 0.88,-2.66 -0.88,-0.88 c 10.63,-178.34 23.93,-360.22 39.91,-516.37 4.43,-42.57 9.74,-80.73 13.29,-117.98 h 70.99 v -80.75 h -46.13 v -14.18 h 30.17 v -74.52 h -7.1 l 27.52,-79.86 100.25,-288.37 h 31.01 v -75.41 l 6.24,2.67 282.12,-544.74 h 53.24 v -62.98 h -337.13 v 62.98"
         style="fill:#3f87cf;fill-opacity:1;fill-rule:evenodd;stroke:none"
         id="path20" />
      <path
         d="m 3267.6,2569.39 c 74.51,-45.28 36.37,-59.46 42.58,-68.33 h -83.4 c 6.22,9.76 -37.26,21.29 40.82,68.33 z m 1.77,32.82 c 1.78,-0.89 2.66,-2.64 2.66,-5.32 0,-2.65 -0.88,-4.43 -2.66,-6.24 v -17.72 h 2.66 v -3.54 h -2.66 -1.77 -0.88 -2.66 v 3.54 h 2.66 v 15.97 c -0.89,0 -1.78,0 -2.66,0 -2.67,0 -5.33,2.65 -7.12,5.34 1.79,-0.89 3.56,-1.78 5.34,-1.78 4.44,0 7.98,3.54 7.98,7.11 0,0.86 0,1.75 -0.89,2.64 z m 358.44,-204.05 h 31.95 c -6.22,-2.67 -15.99,-9.77 -17.77,-12.44 -6.2,-4.44 -13.29,-12.4 -13.29,-20.4 v -70.95 h 68.32 v 70.95 c 0,8 -7.99,15.96 -13.32,20.4 -2.66,1.78 -12.42,9.77 -17.74,12.44 h 28.4 v 7.08 h -66.55 z m -406.35,-120.67 h 25.73 c -5.33,-2.68 -11.53,-7.1 -13.3,-8.86 -5.34,-4.43 -13.31,-12.45 -13.31,-20.42 v -70.97 h 68.32 v 70.97 c 0,7.97 -7.09,15.99 -13.32,20.42 -1.77,1.76 -7.09,6.18 -12.41,8.86 h 25.73 v 7.08 h -67.44 z m 0,120.67 h 30.18 c -5.33,-2.67 -15.09,-10.66 -17.75,-12.44 -5.34,-4.44 -13.31,-12.4 -13.31,-20.4 v -70.95 h 68.32 v 70.95 c 0,8 -7.99,15.96 -13.32,20.4 -2.66,2.67 -11.52,9.77 -17.74,12.44 h 31.06 v 7.08 h -67.44 z m 408.13,-120.67 h 24.82 c -5.31,-2.68 -10.64,-7.1 -13.3,-8.86 -5.32,-4.43 -12.41,-12.45 -12.41,-20.42 v -70.97 h 68.32 v 70.97 c 0,7.97 -7.99,15.99 -13.32,20.42 -1.77,1.76 -7.99,6.18 -13.31,8.86 h 26.63 v 7.08 h -67.43 z m -371.75,196.97 v 0 h 15.97 v -23.98 h -15.97 z m 27.5,0 v 0 h 15.98 v -23.98 h -15.98 z m 334.47,0 v 0 h 15.98 v -23.98 h -15.98 z m 27.51,0 v 0 h 15.98 v -23.98 h -15.98 z m 26.62,0 v 0 h 16.85 v -23.98 h -16.85 z m -443.6,0 v 0 h 15.97 v -23.98 h -15.97 z m 423.2,-142.84 h 17.74 v -33.71 h -17.74 z m 0,-117.11 h 17.74 v -33.73 h -17.74 z m -407.23,0 h 17.75 v -33.73 h -17.75 z m 0,117.11 h 17.75 v -33.71 h -17.75 z M 3532,2274.81 h -147.29 v -94.03 h -21.29 v 269.7 0 h 188.97 v -269.7 H 3532 Z m -51.47,-44.32 v -49.71 h -45.25 v 49.71 c 0,9.75 21.3,22.15 23.06,22.15 0.88,0 22.19,-12.4 22.19,-22.15 z m 0,112.65 v -50.58 H 3532 v 52.35 c 0,30.16 -70.09,70.97 -73.66,70.97 -3.55,0 -73.63,-40.81 -73.63,-70.97 v -52.35 h 50.57 v 50.58 c 0,8.87 21.3,21.31 23.06,21.31 0.88,0 22.19,-12.44 22.19,-21.31 z m 128.63,157.92 c 5.35,9.76 -37.26,21.29 40.83,68.33 h -0.89 -2.65 v 3.54 h 2.65 v 15.97 c -0.88,0 -1.78,0 -2.65,0 -2.68,0 -6.23,2.65 -7.12,5.34 0.89,-0.89 3.55,-1.78 5.35,-1.78 4.42,0 7.96,3.54 7.96,7.11 0,0.86 0,1.75 -0.87,2.64 1.77,-0.89 2.64,-2.64 2.64,-5.32 0,-2.65 -0.87,-4.43 -2.64,-6.24 v -17.72 h 1.77 v -3.54 h -1.77 -1.78 c 74.51,-45.28 35.48,-59.46 42.57,-68.33 z m 133.09,-143.73 v -64.77 l 45.25,-5.32 v 64.77 c 0,12.44 -22.17,31.06 -23.05,31.06 -0.9,0.89 -22.2,-12.43 -22.2,-25.74 z m 0,-110.01 v -65.65 l 45.25,-0.89 V 2242 c 0,11.54 -22.17,30.17 -23.05,30.17 -0.9,0 -22.2,-13.32 -22.2,-24.85 z m -565.16,110.01 v -64.77 l -45.22,-5.32 v 64.77 c 0,12.44 21.28,31.06 22.17,31.06 0.88,0.89 23.05,-12.43 23.05,-25.74 z m 0,-110.01 v -65.65 l -45.22,-0.89 V 2242 c 0,11.54 21.28,30.17 22.17,30.17 0.88,0 23.05,-13.32 23.05,-24.85 z m -310.5,168.56 v -153.46 h 71.86 v 153.46 z m 992.78,-100.26 v -94.93 h 43.47 v 94.93 z m 48.78,117.14 h -5.31 v -110.03 h -43.47 v 110.03 h -5.32 v 4.43 h 54.1 z m 0,6.21 h -54.1 v 4.43 h 54.1 z m 0,40.79 h -54.1 v 4.45 h 54.1 z m 0,-8.86 h -54.1 v 5.32 h 54.1 z m -23.94,-19.53 v 0 h -7.1 v 13.34 h 7.1 z m -8.88,0 v 0 h -7.09 v 13.34 h 7.09 z m 18.63,0 v 0 h -7.09 v 13.34 h 7.09 z m 8.88,-5.32 h -42.58 v 23.09 h 42.58 z m -1.77,40.82 c -2.66,5.31 18.62,11.55 -20.41,35.48 -38.16,-23.93 -16.86,-31.06 -21.29,-35.48 14.18,0 27.5,0 41.7,0 z m -565.15,-331.84 h 243.98 v 322.08 h -243.98 z m 716.86,260.85 v -153.46 h -70.98 v 153.46 z m -79.86,262.64 h 88.74 v 11.5 h -88.74 z m 39.03,-42.6 v 0 h 11.57 v 21.29 h -11.57 z m 15.11,0 v 0 h 12.4 v 21.29 h -12.4 z m -31.06,0 v 0 h 11.52 v 21.29 H 3996 Z m 55.9,-7.97 v 37.27 h 9.76 v 11.51 h -88.74 v -11.51 h 9.77 v -37.27 h -9.77 v -10.66 -0.89 -10.65 h 8.88 v -178.31 h 70.98 v 178.31 h 8.88 v 10.65 0.89 10.66 z m -67.43,66.55 c 5.31,7.96 -30.17,17.72 33.71,55.85 61.2,-37.23 27.49,-48.77 34.6,-55.85 -23.06,0 -45.26,0 -68.31,0 z m -1046.02,-88.75 h -71.86 v -178.31 h 71.86 z m 1204.8,-530.53 H 2773.42 v 47.89 H 4143.25 Z M 2947.3,2607.53 h -88.71 v 6.21 h 88.71 z m 0,8.87 h -88.71 v 8.85 h 88.71 z m 0,64.76 h -88.71 v 8.86 h 88.71 z m 0,-14.18 h -88.71 v 9.75 h 88.71 z m -39.02,-31.06 v 0 h -11.55 v 21.29 h 11.55 z m -15.98,0 v 0 h -11.53 v 21.29 h 11.53 z m 31.94,0 v 0 h -11.53 v 21.29 h 11.53 z m 12.44,-7.97 h -68.33 v 37.27 h 68.33 z m -1.79,66.55 c -4.44,7.96 30.17,17.72 -32.82,55.85 -61.22,-37.23 -27.51,-48.77 -34.6,-55.85 22.17,0 45.24,0 67.42,0 z m 125.98,-480.89 v -58.58 h 52.35 v 271.49 l 87.84,17.77 v -289.26 h 3.54 v 337.15 h 11.55 v 3.57 h 102.91 v 31.06 h 276.81 v -25.75 0 -5.31 h 106.46 v -3.57 h 8.88 v -337.15 h 5.32 v 293.7 l 85.17,-23.98 v -269.72 h 57.67 v 58.58 h 43.47 v -58.58 h 78.96 v 94.94 h 70.98 v -94.94 h 90.47 V 2131.1 H 2773.42 v 23.93 h 93.17 v 94.94 h 71.86 v -94.94 h 78.07 v 58.58 z m 0,102.01 v -94.93 h -44.35 v 94.93 z m -44.35,117.14 h 44.35 v -110.03 h -44.35 z m -4.45,0.89 h 54.14 v 3.54 h -54.14 z m 0,5.32 h 54.14 v 3.55 h -54.14 z m 0,40.79 h 54.14 v 4.45 h -54.14 z m 0,-7.97 h 54.14 v 4.43 h -54.14 z m 23.08,-20.42 v 0 h 7.09 v 13.34 h -7.09 z m 9.75,0 v 0 h 7.1 v 13.34 h -7.1 z m -19.51,0 v 0 h 7.99 v 13.34 h -7.99 z m -7.98,-5.32 h 42.57 v 23.09 h -42.57 z m 1.77,40.82 c 2.66,5.31 -18.63,11.55 20.4,35.48 37.26,-23.93 16.87,-31.06 21.29,-35.48 -14.2,0 -27.49,0 -41.69,0 z M 3461.02,2832 v -62.99 h 7.98 v -11.55 h -2.66 c 226.22,-142.85 99.36,-187.2 125.97,-215.59 -43.46,0.9 -86.94,0.9 -131.29,0 h -133.1 c 16.86,31.06 -114.43,71.87 119.78,215.59 h -2.67 v 11.55 h 8 v 59.45 c -1.78,0 -3.54,0 -5.33,0 -9.76,0 -18.62,6.21 -22.18,15.96 4.44,-4.45 9.76,-6.21 15.97,-6.21 13.3,0 24.85,10.65 24.85,23.96 0,2.67 -0.89,6.21 -1.77,7.97 5.31,-4.43 7.97,-10.62 7.97,-16.86 0,-8.86 -4.43,-16.84 -11.52,-21.28 v 0"
         style="fill:#3f87cf;fill-opacity:1;fill-rule:evenodd;stroke:none"
         id="path22" />
      <path
         d="m 4426.31,3151.38 h 4.42 v 300.77 h -4.42 z m 8.85,0 h 4.44 v 300.77 h -4.44 z m -17.72,0 h 5.3 v 300.77 h -5.3 z m -275.95,0 h 4.44 v 300.77 h -4.44 z m -8.86,0 h 4.43 v 300.77 h -4.43 z m 17.75,0 h 3.56 v 300.77 h -3.56 z m 238.65,300.77 h -16.86 v -17.73 h 16.86 z m -21.3,0 h -16.83 v -17.73 h 16.83 z m -21.29,0 h -16.85 v -17.73 h 16.85 z m -21.27,0 h -16.89 v -17.73 h 16.89 z m -21.32,0 h -16.83 v -17.73 h 16.83 z m -21.26,0 h -16.88 v -17.73 h 16.88 z m -21.31,0 h -16.88 v -17.73 h 16.88 z m -21.31,0 H 4224 v -17.73 h 15.97 z m -20.39,0 h -16.87 v -17.73 h 16.87 z m -21.3,0 h -16.85 v -17.73 h 16.85 z m -21.31,0 h -16.83 v -17.73 h 16.83 z m 233.34,0 h -16.83 v -17.73 h 16.83 z m -0.89,-26.58 v -248.45 h -247.51 v 248.45 z m -223.55,-231.58 c -5.34,0 -8.9,3.54 -8.9,9.75 0,4.44 3.56,7.98 8.9,7.98 5.32,0 8.87,-3.54 8.87,-7.98 0,-6.21 -3.55,-9.75 -8.87,-9.75 z m 0,198.73 c -5.34,0 -8.9,4.44 -8.9,8.86 0,5.32 3.56,8.86 8.9,8.86 5.32,0 8.87,-3.54 8.87,-8.86 0,-4.42 -3.55,-8.86 -8.87,-8.86 z m 201.4,0 c -5.32,0 -8.9,4.44 -8.9,8.86 0,5.32 3.58,8.86 8.9,8.86 4.44,0 8.86,-3.54 8.86,-8.86 0,-4.42 -4.42,-8.86 -8.86,-8.86 z m 0,-198.73 c -5.32,0 -8.9,3.54 -8.9,9.75 0,4.44 3.58,7.98 8.9,7.98 4.44,0 8.86,-3.54 8.86,-7.98 0,-6.21 -4.42,-9.75 -8.86,-9.75 z m -101.15,-7.12 c -62.99,0 -114.45,51.47 -114.45,114.46 0,62.12 51.46,113.54 114.45,113.54 62.11,0 113.56,-51.42 113.56,-113.54 0,-62.99 -51.45,-114.46 -113.56,-114.46 z m 0,-6.21 h 119.77 v 120.67 c 0,-66.53 -54.1,-120.67 -119.77,-120.67 z m -120.66,120.67 v -120.67 h 120.66 c -66.54,0 -120.66,54.14 -120.66,120.67 z m 120.66,120.66 h -120.66 v -120.66 c 0,66.54 54.12,120.66 120.66,120.66 z m -12.44,-18.62 v 0 l 0.89,-10.65 z m -26.62,-6.21 v 0 0 l 4.46,-9.79 -0.89,-0.88 z M 4224,3383.84 v 0 0.87 l 6.21,-8.86 v -0.9 z m -33.7,-41.7 v 0 l 9.76,-4.43 z m -7.09,-53.21 v 0 l 10.64,0.89 z m 19.5,-49.69 v 0 0 l 8.86,6.18 z m 18.66,-19.55 v 0 0.89 l 7.09,8.01 z m 23.92,-14.18 v 0 l -0.89,0.89 4.44,9.74 z m 52.37,-7.08 v 0 l -0.88,10.63 z m 69.2,39.02 v 0 0 l -8.87,6.21 z m 14.19,23.1 v 0 0 l -10.65,4.42 v 0 z m -12.44,102.9 v 0 l -8.86,-7.1 v 0.89 z m -41.68,32.81 v 0 l -4.42,-9.77 z m -68.32,5.32 v 0 h 0.89 l 1.78,-10.63 z m -45.26,-173.87 v 0 l -0.88,0.88 7.11,7.08 h 0.89 z m 145.52,0.88 v 0 l -0.88,-0.88 -7.09,7.96 h 0.89 z m 26.63,46.14 v 0 0 l -10.68,2.64 v 0 z m 0,53.23 v 0 0 l -10.68,-2.65 z m -27.51,46.12 v 0 h 0.88 l -7.08,-7.98 -0.89,0.88 z m -46.16,27.5 v 0 h 0.88 l -2.64,-10.63 z m 94.06,20.41 h -119.77 c 65.67,0 119.77,-54.12 119.77,-120.66 z m -210.27,-118.87 c 0,2.63 0,6.21 0.89,8.84 v 0 0 c 0,1.79 0,2.66 0,4.45 v 0 0 c 0.88,1.77 0.88,4.42 1.77,6.23 v 0 0 c 0,1.78 0,2.67 0.88,3.53 v 0.89 0 c 0.9,2.68 1.79,5.32 2.68,7.11 v 0 l 0.87,1.76 v 0.89 c 0,0.89 0.88,0.89 0.88,1.78 v 0 0 c 0.89,1.75 1.78,3.54 2.68,5.33 l 32.81,-18.62 c -3.53,-7.13 -6.2,-14.23 -6.2,-22.19 z m 10.65,-45.25 c -1.79,2.68 -2.68,5.32 -3.56,8.86 v 0 h -0.87 c -0.89,2.67 -1.78,6.21 -2.68,8.87 v 0 0 c -0.88,1.77 -0.88,2.66 -0.88,4.42 v 0 0 c -1.77,6.21 -2.66,12.44 -2.66,18.65 h 37.26 c 0,-7.96 2.67,-15.09 6.2,-22.19 z m 31.93,-33.71 c -1.77,0.89 -4.44,2.66 -7.09,4.43 h 0.89 l -0.89,0.9 -2.65,0.88 v 0.87 h -0.89 v 0 c -0.89,1.79 -2.67,2.68 -4.44,4.43 h 0.87 l -0.87,0.89 -1.76,1.78 -1.79,0.9 c -1.76,1.76 -3.54,3.53 -5.34,6.18 h 0.92 -0.92 l -1.77,2.68 -0.9,0.88 c -0.88,1.76 -1.77,3.54 -2.66,5.33 v 0 0 h -0.87 l 32.83,18.63 c 2.64,-3.54 4.42,-6.21 7.97,-8.87 2.68,-2.66 5.34,-5.31 8.88,-7.98 l -19.52,-31.93 v 0 z m 45.27,-13.34 c -2.66,0 -5.36,0 -8,0.9 v 0 0 c -0.9,0 -1.79,0 -2.67,0 h -0.9 -0.87 c -2.66,0.89 -4.43,0.89 -6.22,1.78 v 0 0 c -4.42,0.89 -8.84,2.64 -13.29,4.43 h -0.89 v 0 c -2.64,0.89 -5.34,2.65 -7.99,3.53 l 18.64,32.85 c 7.09,-3.57 14.19,-5.33 22.19,-6.21 z m 45.22,10.64 c -1.76,-0.88 -4.42,-2.64 -7.07,-3.53 v 0.89 l -1.79,-0.89 -0.87,-0.9 -1.77,-0.89 v 0 0 c -1.78,0 -3.6,-0.88 -5.36,-1.75 v 0 h -0.87 c -0.89,0 -2.68,-0.89 -3.56,-0.89 h -0.88 v 0 c -3.55,-0.89 -6.21,-1.78 -9.74,-1.78 h -1.79 v 0 c -2.66,-0.9 -4.42,-0.9 -7.09,-0.9 v 37.28 c 7.98,0.88 15.07,2.64 22.17,6.21 z m 33.72,32.85 c -0.88,-2.68 -2.66,-5.33 -4.42,-8 l -1.78,-1.76 -0.89,-0.89 v 0 c -1.77,-1.78 -2.63,-3.56 -3.53,-4.42 l -1.79,-0.9 -0.88,-1.78 v 0 l -1.81,-0.89 h 0.92 c -2.67,-1.75 -4.46,-3.54 -6.23,-5.3 h -0.89 v -0.88 l -0.89,-0.9 c -2.65,-1.77 -4.42,-2.67 -7.09,-4.43 l -18.64,32.81 c 2.7,1.79 6.23,4.44 8.9,7.1 2.65,2.66 5.3,5.33 7.09,8.87 l 31.93,-18.63 v 0 z m 13.3,44.36 c 0,-2.66 0,-5.31 -0.89,-7.96 v 0 0 c 0,-3.59 -0.88,-7.13 -1.75,-10.69 v 0 0 c -1.78,-7.97 -4.46,-15.05 -7.99,-22.15 l -32.83,18.61 c 3.55,7.1 5.32,14.23 6.2,22.19 z m -10.63,45.26 c 1.78,-2.68 2.65,-5.33 3.53,-8 v 0 l 0.89,-0.87 c 0,-0.89 0,-1.79 0.9,-1.79 v -0.89 0 c 0.89,-2.64 1.77,-6.21 2.67,-9.74 v 0 0 c 1.75,-6.23 2.64,-12.44 2.64,-19.52 h -37.26 c 0,7.96 -2.65,15.95 -5.32,22.19 z m -77.18,47.91 c 2.67,0 5.31,0 7.98,-0.89 v 0 h 0.9 2.63 0.9 c 2.66,-0.87 4.44,-0.87 6.21,-1.77 v 0 h 0.88 l 2.67,-0.89 h 0.89 c 2.63,-0.92 5.34,-1.8 8,-2.69 v -0.89 h 0.87 c 0.89,0 1.79,-0.87 2.68,-0.87 v 0 l 0.88,-0.89 v 0 c 1.78,0 3.54,-1.79 5.3,-2.68 l -18.62,-31.92 c -7.1,3.54 -14.19,5.32 -22.17,6.19 z m -45.26,-11.57 c 2.65,1.78 4.42,2.68 7.12,4.44 h 0.87 l 2.67,0.89 v 0 c 2.67,0.89 4.42,1.77 7.09,2.69 h 0.89 l 1.78,0.89 h 1.75 c 2.67,0.9 5.34,0.9 7.99,1.77 v 0 h 0.88 2.68 0.88 v 0.89 c 1.76,0 4.42,0 6.23,0 v -37.3 c -8,-0.87 -15.99,-2.65 -22.19,-6.19 z m 54.14,12.45 c -2.68,0.9 -6.21,0.9 -8.88,0.9 v 11.51 c 3.55,0 7.09,0 10.63,0 z m 2.63,0 h -0.88 v 0 l 1.78,10.65 v 0 z m 7.99,-1.77 c -1.77,0.89 -4.43,0.89 -6.2,1.77 l 1.77,11.54 c 2.66,-0.89 5.31,-0.89 7.1,-1.79 v 0 z m 12.43,-3.58 c -2.64,0.92 -5.34,1.81 -8,2.71 l 3.58,11.5 v 0 c 2.66,-0.88 6.21,-2.64 8.86,-3.53 v 0 z m 9.76,-5.32 c -1.78,1.79 -3.55,2.66 -5.32,3.55 l 4.42,10.66 v 0 c 2.68,-0.87 4.44,-1.76 7.11,-3.54 z m 11.52,-7.1 c -2.66,1.79 -4.42,3.58 -7.1,5.32 l 6.21,9.81 c 2.67,-1.79 5.34,-3.59 8.01,-5.37 z m 1.78,-0.87 v 0 l 7.11,7.97 v 0 l -6.23,-7.97 z m 6.23,-6.21 c -0.89,1.79 -2.68,3.55 -4.46,4.44 l 7.13,9.74 c 1.76,-1.78 4.42,-3.52 6.2,-5.31 z m 8.87,-8.85 c -1.78,1.75 -3.56,3.54 -5.3,6.21 l 8.84,7.97 c 1.78,-2.67 4.44,-5.33 6.2,-7.1 v -0.87 z m 6.2,-9.78 c -0.88,1.77 -1.78,3.54 -2.66,5.3 l 8.87,7.12 c 1.77,-1.76 3.54,-4.42 4.42,-6.18 z m 6.21,-11.53 c -0.9,2.64 -1.79,5.32 -3.54,7.97 l 9.75,5.33 h 0.88 c 1.77,-2.66 2.67,-6.22 4.46,-8.87 z m 0.89,-1.78 v 0 l 9.76,4.42 v 0 -0.87 z m 3.53,-8.87 c -0.88,2.68 -1.75,4.44 -2.65,6.21 l 11.55,4.44 v 0 c 0.88,-2.65 1.78,-4.44 1.78,-7.1 v 0 z m 2.67,-12.44 c -0.88,2.67 -0.88,5.32 -1.78,8.02 l 11.56,2.67 v 0.86 c 0.88,-3.53 1.76,-7.1 1.76,-10.66 v 0 z m 0,-2.66 v 0 0.9 l 10.66,0.89 v 0 -0.89 z m 0.88,-7.96 c 0,1.75 0,3.54 -0.88,5.33 l 12.43,1.75 v 0 c 0,-1.75 0,-4.43 0,-7.08 z m -0.88,-13.29 c 0.88,2.65 0.88,5.3 0.88,7.96 h 11.55 c 0,-3.53 0,-6.21 -0.89,-9.74 z m 0,-2.67 v 0 l 10.66,-1.81 v 0 h -0.88 z m -1.78,-8.89 c 0,1.76 0.9,4.43 0.9,6.19 l 12.42,-1.76 c -0.88,-1.77 -0.88,-4.43 -1.76,-7.1 v 0 z m -4.42,-12.42 c 0.88,2.67 2.65,5.32 2.65,8 l 11.56,-2.68 h 0.89 c -1.79,-3.53 -2.67,-7.08 -3.55,-9.75 z m -4.43,-9.76 c 0.87,1.79 1.75,3.58 2.64,5.33 l 11.55,-4.43 c -1.79,-2.65 -2.68,-4.45 -3.56,-7.13 h -0.88 z m -7.11,-10.66 c 1.78,1.79 3.56,4.43 4.44,7.11 l 10.63,-6.21 c -1.75,-3.55 -3.53,-6.21 -5.32,-8.87 h -0.89 z m -7.06,-8.86 c 1.74,1.79 2.63,3.55 3.52,4.43 l 9.76,-7.08 c -0.89,-1.77 -2.66,-3.56 -4.44,-5.31 z m -9.8,-8.86 c 2.67,1.78 4.42,3.54 6.23,5.33 l 8.87,-8 v 0 c -2.67,-2.65 -5.3,-5.34 -7.99,-7.1 v 0 z m -1.78,-1.77 v 0 0 l 6.2,-8 v 0 z m -7.1,-4.44 c 1.79,0.89 3.56,1.78 5.33,3.54 l 7.1,-9.78 c -1.78,-1.75 -4.44,-2.64 -6.22,-4.42 v 0 z m -11.5,-6.24 c 2.66,0.89 5.3,2.68 7.08,3.55 l 6.21,-9.76 v -0.87 c -2.67,-0.88 -6.21,-2.66 -8.87,-4.42 v 0.87 z m -2.68,-0.88 h 0.89 l 3.55,-9.75 v 0 z m -8,-2.65 c 1.76,0 3.58,0.89 6.24,1.78 l 4.44,-10.65 v -0.89 c -2.68,-0.88 -4.44,-1.78 -7.1,-1.78 v 0 z m -1.76,-0.89 v 0 l 2.64,-9.75 v 0 h -0.88 l -1.76,9.75 z m -10.66,-2.66 c 2.67,0.87 5.34,0.87 7.99,1.76 l 2.67,-11.5 v 0 c -2.67,-0.89 -6.22,-0.89 -9.76,-1.79 v 0 z m -11.51,-0.88 c 1.77,0 4.43,0 6.2,0.88 l 1.78,-11.53 v -0.89 c -2.67,0 -5.31,0 -7.98,0 z m -13.33,0.88 c 2.67,0 6.24,-0.88 8.9,-0.88 v -11.54 c -3.58,0 -7.11,0 -10.67,0.89 v 0 z m -2.67,0 h 0.9 l -1.77,-9.74 v 0 z m -7.97,1.76 c 1.78,0 4.44,-0.89 6.22,-0.89 l -1.78,-11.5 v 0 c -2.66,0 -5.31,0.89 -7.09,0.89 v 0 z m -2.65,0.9 v 0 0 l -1.78,-9.75 v 0 h -0.89 z m -9.76,3.54 c 2.66,-0.87 5.34,-1.76 7.98,-2.65 l -2.64,-11.54 v 0 c -3.56,0.9 -7.1,1.78 -9.8,2.67 z m -9.77,4.43 c 1.76,-0.87 3.54,-1.76 5.31,-2.66 l -4.42,-10.63 c -2.67,0.89 -5.34,1.78 -7.09,3.53 v 0 z m -11.54,7.13 c 2.67,-1.77 4.45,-2.66 7.09,-4.44 l -5.3,-10.66 h -0.89 c -2.65,1.78 -5.32,3.54 -7.98,6.21 v 0 z m -7.95,7.1 c 1.74,-0.89 2.64,-2.68 4.42,-3.55 l -7.1,-9.79 h -0.88 c -1.78,1.8 -3.54,3.58 -5.35,5.34 v 0 z m -8.91,10.63 c 1.81,-2.67 3.57,-4.45 5.35,-7.1 l -8.01,-8.86 h -0.89 c -1.76,2.65 -4.43,5.33 -6.21,7.97 v 0 z m -6.2,7.97 c 0.89,-1.78 1.76,-3.54 3.54,-4.42 l -10.63,-7.1 v 0 c -0.9,1.77 -2.67,3.55 -3.55,6.21 v 0 z m -6.2,12.45 c 0.89,-2.67 1.76,-5.32 3.53,-8 l -10.63,-6.23 v 0 c -1.77,2.68 -2.66,6.23 -4.45,8.91 l 0.9,0.9 z m -0.89,1.76 v 0 0 l -9.76,-4.43 v 0 0.89 z m -3.55,8 c 0.88,-1.79 1.77,-3.58 2.65,-5.33 l -11.5,-4.43 v -0.9 c -0.89,2.66 -1.79,5.33 -2.68,7.98 h 0.89 z m 0,2.64 v 0 0 l -10.64,-2.64 v 0 z m -2.66,10.67 c 0.89,-2.7 0.89,-6.23 1.77,-8.89 l -11.52,-2.67 v 0 c -0.89,3.54 -1.77,6.22 -1.77,9.75 v 0 z m -0.88,10.63 c 0,-1.77 0,-4.42 0.88,-6.21 l -12.42,-0.89 v 0 c 0,2.68 0,4.44 0,7.1 z m 0.88,13.29 c -0.88,-2.63 -0.88,-5.31 -0.88,-7.96 h -11.54 c 0,3.54 0,6.2 0.9,9.75 z m 0,2.66 v 0 l -10.64,0.89 v 0 0.9 z m 1.77,8.02 c -0.88,-1.81 -0.88,-3.57 -1.77,-6.23 l -11.52,1.77 c 0.88,2.65 0.88,5.35 1.77,7.99 v -0.86 z m 0.89,2.67 v 0 l -10.64,2.65 v 0 0 z m 2.65,9.75 c -0.88,-2.68 -1.77,-5.32 -2.65,-8 l -10.64,3.55 h -0.89 c 0.89,3.56 2.68,6.21 3.55,9.74 v 0 z m 5.32,10.62 c -0.89,-1.75 -1.77,-3.54 -2.64,-6.2 l -11.54,5.31 c 0.89,1.77 2.67,4.45 3.55,6.22 v 0 z m 7.09,10.67 c -1.77,-1.81 -3.53,-4.46 -4.42,-7.11 l -5.31,3.54 -5.33,2.7 v 0 c 1.77,2.64 3.55,6.18 5.33,7.97 h 0.87 z m 1.78,1.77 h -0.88 l -7.99,7.11 v 0 0 l 8.87,-6.21 z m 15.11,15.96 c -1.78,-1.77 -2.67,-2.66 -4.46,-3.55 l 1.79,-1.76 c 0.89,0.89 2.67,2.65 3.55,3.54 h 0.87 v 0 l 0.9,0.89 c 2.65,1.75 4.44,3.54 7.09,5.33 v 0 h 0.88 l 18.64,-32.85 c -1.75,-0.89 -3.54,-1.75 -4.42,-2.65 l 1.77,-1.78 c 7.99,7.1 18.61,10.64 31.05,10.64 12.41,0 24.84,-5.33 33.71,-13.29 h 3.56 v 0 c -2.67,2.65 -5.32,5.33 -8.9,7.08 l 17.76,32.85 h 0.88 v 0 c 3.56,-2.68 6.21,-4.45 9.76,-7.11 l 0.88,-0.89 v 0 c 1.79,-1.76 3.54,-3.55 6.23,-5.3 1.79,-2.67 4.43,-5.33 7.11,-7.99 v -0.89 l 0.88,-0.87 c 1.76,-2.7 3.54,-4.47 4.42,-7.13 l -31.93,-18.61 c -1.79,2.64 -4.44,6.19 -6.21,8.86 v -4.43 c 7.1,-8 12.42,-20.42 12.42,-32.84 0,-14.21 -6.21,-26.6 -15.07,-36.36 -9.79,-8.88 -22.21,-15.12 -35.5,-15.12 -14.22,0 -26.62,6.24 -36.36,15.12 -9.79,9.76 -15.1,22.15 -15.1,36.36 0,11.53 3.54,22.2 10.63,30.17 l -1.78,1.77 c -0.87,-0.89 -1.76,-2.66 -2.64,-3.53 l -31.96,18.61 c 1.78,3.54 4.44,7.13 7.13,9.77 v 0.9 0 c 0.88,0 0.88,0.88 1.78,1.75 l -1.78,1.79 c -0.88,-0.9 -0.88,-1.79 -1.8,-2.66 l -9.76,7.97 c 1.79,0.9 2.67,1.79 3.56,3.55 v 0.89 c 0,0 0,0.89 0,1.77 v 1.77 l 2.65,0.89 c 0.88,1.79 2.66,1.79 4.47,1.79 1.76,1.74 3.54,2.63 6.21,4.42 v 0 z m 8.84,6.19 c -1.75,-1.74 -3.54,-2.64 -5.3,-3.53 l -7.1,9.75 c 2.67,0.88 4.44,2.69 7.1,4.46 z m 12.46,6.22 c -2.7,-1.78 -5.36,-2.65 -8.01,-3.54 l -6.2,9.77 c 2.65,1.78 6.2,3.54 9.74,4.44 z m 9.74,3.59 c -1.78,-0.9 -3.53,-1.79 -6.2,-1.79 l -4.46,10.65 c 2.68,0.89 5.34,1.76 8.02,2.64 v 0 z m 12.4,2.64 c -2.64,-0.88 -5.3,-0.88 -7.97,-1.77 l -2.65,11.52 v 0 c 2.65,0.9 6.2,1.79 9.75,1.79 v 0 z m 11.57,0.9 c -1.81,0 -4.47,0 -6.23,0 l -0.88,11.51 h -0.89 c 2.64,0 5.34,0 8,0 z m 2.65,-102.91 c -1.76,0 -3.53,0.86 -5.31,0.86 l -6.24,-6.23 c -0.89,-3.53 -0.89,-6.19 -2.67,-7.97 -0.87,-0.89 -2.64,-0.89 -4.42,0 -1.77,2.65 -1.77,2.65 -4.42,5.33 -1.78,0.88 -1.78,2.64 0,4.42 1.75,1.81 4.42,2.7 7.09,2.7 l 7.09,6.19 c -1.77,0.89 -1.77,3.56 -1.77,5.32 0,0.89 0,1.79 0,2.67 l -63.9,68.31 c 0,0 0,0.89 0,1.77 h 1.78 c 0,0.87 0.89,0.87 0.89,0 l 67.42,-63 c 0.93,0.88 2.7,0.88 4.46,0.88 1.78,0 4.45,-0.88 6.21,-1.76 l 10.64,9.74 c -0.89,0 -1.77,0.89 -1.77,1.81 -1.79,0.89 -1.79,3.56 0,4.42 1.77,1.79 6.2,2.68 10.63,2.68 l 1.76,1.76 v 4.45 h 6.24 v -5.32 h -3.53 l -2.71,-2.68 c 0,-4.42 0,-8.88 -1.76,-10.65 -1.76,-0.9 -4.43,-0.9 -5.31,0 -0.89,0.88 -0.89,0.88 -0.89,0.88 l -10.64,-10.64 c 0.89,-1.76 1.79,-3.53 1.79,-5.32 0,-1.76 -0.9,-2.66 -0.9,-3.54 2.65,-4.43 7.97,-7.97 13.29,-9.75 0,0 0.9,0 0.9,-0.92 0,-0.89 0,-1.78 -0.9,-1.78 -1.77,0 -1.77,-0.87 -1.77,-1.76 -0.88,0 -0.88,-0.88 -0.88,-1.77 0,-0.9 -0.89,-1.79 -0.89,-1.79 -1.78,0 -2.66,0 -2.66,-0.87 -0.89,0 -1.77,-0.89 -1.77,-1.78 h -0.89 c -0.9,-0.89 -0.9,0 -1.78,0 -1.75,6.21 -5.32,9.75 -10.63,13.34 0,0 -0.88,0 -1.78,0 z m -87.84,-124.24 h -16.85 v -16.87 h 16.85 z m 21.3,0 h -16.87 v -16.87 h 16.87 z m 20.39,0 H 4224 v -16.87 h 15.97 z m 21.31,0 h -16.88 v -16.87 h 16.88 z m 21.31,0 h -16.88 v -16.87 h 16.88 z m 21.26,0 h -16.83 v -16.87 h 16.83 z m 21.32,0 h -16.89 v -16.87 h 16.89 z m 21.27,0 h -16.85 v -16.87 h 16.85 z m 21.29,0 h -16.83 v -16.87 h 16.83 z m 21.3,0 h -16.86 v -16.87 h 16.86 z m 21.28,0 h -16.83 v -16.87 h 16.83 z m -233.34,0 h -16.83 v -16.87 h 16.83 z m 254.65,-44.37 h -291.89 v -415.2 h 291.89 z m -50.57,-194.27 h 14.19 v 186.3 h -14.19 z m -25.73,0 h 14.18 v 186.3 h -14.18 z m -25.73,0 h 14.18 v 186.3 h -14.18 z m -25.74,0 h 14.22 v 186.3 h -14.22 z m -25.74,0 h 15.1 v 186.3 h -15.1 z m -24.81,0 h 14.18 v 186.3 h -14.18 z m -25.73,0 h 14.18 v 186.3 h -14.18 z m -25.73,0 h 14.2 v 186.3 h -14.2 z m -25.75,0 h 14.21 v 186.3 h -14.21 z m -25.71,0 h 14.18 v 186.3 h -14.18 z m 256.4,0 h 14.21 v 186.3 h -14.21 z m -25.73,-212.96 h 14.19 v 202.29 h -14.19 z m -25.73,0 h 14.18 v 202.29 h -14.18 z m -25.73,0 h 14.18 v 202.29 h -14.18 z m -25.74,0 h 14.22 v 202.29 h -14.22 z m -25.74,0 h 15.1 v 202.29 h -15.1 z m -24.81,0 h 14.18 v 202.29 h -14.18 z m -25.73,0 h 14.18 v 202.29 h -14.18 z m -25.73,0 h 14.2 v 202.29 h -14.2 z m -25.75,0 h 14.21 v 202.29 h -14.21 z m -25.71,0 h 14.18 v 202.29 h -14.18 z m 256.4,0 h 14.21 v 202.29 h -14.21 z m -139.3,991.02 h -24.84 v -44.36 h 24.84 z m 31.05,0 h -24.85 v -44.36 h 24.85 z m 30.16,0 h -24.84 v -44.36 h 24.84 z m 31.06,0 h -24.85 v -44.36 h 24.85 z m -123.32,0 h -24.86 v -44.36 h 24.86 z m 126.88,76.3 v 6.24 h 5.3 v -6.24 l -2.64,2.64 z m -160.6,0 v 6.24 h 5.33 v -6.24 l -2.67,2.64 z m 113.59,6.24 -8.9,15.96 -1.77,3.54 -11.53,-19.5 2.68,-1.79 8.85,14.18 7.08,-14.18 z m -39.06,0 -8.87,15.96 -2.66,3.54 -10.64,-19.5 3.54,-1.79 7.1,14.18 7.97,-14.18 z m 53.24,-36.41 -8.86,15.99 -2.66,3.53 -11.56,-19.52 4.43,-1.79 7.13,14.23 7.97,-14.23 z m -33.7,0 -8.88,15.99 -1.78,3.53 -11.55,-19.52 3.54,-1.79 8.01,14.23 7.09,-14.23 z m -33.72,0 -7.99,15.99 -2.65,3.53 -11.55,-19.52 3.53,-1.79 8.02,14.23 7.08,-14.23 z m 33.72,76.32 -8.88,14.19 -1.78,4.42 -11.55,-18.61 3.54,-2.65 8.01,13.29 7.09,-13.29 z m -14.19,83.38 c -9.79,-61.22 -38.19,-115.32 -57.69,-172.99 v 0.89 l 7.1,-12.42 0.88,-1.76 7.09,14.18 7.09,-12.42 0.93,-1.76 0.85,1.76 7.13,12.42 7.09,-14.18 0.87,1.76 7.1,12.42 7.08,-14.18 0.89,1.76 7.12,12.42 6.21,-12.42 0.88,-1.76 0.89,1.76 7.1,12.42 7.08,-14.18 0.89,1.76 7.13,12.42 7.09,-14.18 0.88,1.76 7.1,12.42 5.32,-12.42 1.76,-1.76 0.89,1.76 6.22,12.42 c 1.75,2.66 -54.11,147.27 -57.66,172.1 z m 3.53,31.95 c 0,-2.66 -0.89,-5.32 -0.89,-8 h 0.89 c 0,2.68 0,5.34 0,8 z m 74.52,-210.26 -3.53,-7.1 -3.56,-7.1 h -0.86 l -2.69,7.1 -4.44,7.1 -4.45,-7.1 -2.66,-7.1 v 0 l -3.55,7.1 -4.42,7.1 -3.55,-7.1 -3.54,-7.1 v 0 l -3.56,7.1 -3.53,7.1 -4.47,-7.1 -3.55,-7.1 v 0 l -3.53,7.1 -3.55,7.1 -4.42,-7.1 -2.68,-7.1 h -0.89 l -3.54,7.1 -3.55,7.1 -4.46,-7.1 -2.66,-7.1 h -0.89 l -3.54,7.1 -3.54,7.1 -4.43,-7.1 -2.67,-7.1 h -0.87 l -3.56,7.1 -3.53,7.1 -4.45,-7.1 -2.68,-7.1 h -0.85 l -3.59,7.1 -4.43,7.1 -3.54,-7.1 -3.55,-7.1 v 0 l -2.67,7.1 -4.42,7.1 -4.42,-7.1 -2.67,-7.1 h -0.88 l -2.66,7.1 -4.47,7.1 -2.65,-4.43 v 31.06 l -2.67,-1.79 -2.66,1.79 v -40.83 0 -68.33 h 165.9 v 68.33 0 40.83 l -2.64,-1.79 -2.66,1.79 v -31.06 z m 15.07,38.13 -9.74,9.76 -9.76,-9.76 9.76,-9.74 z m -160.55,0 -9.79,9.76 -9.75,-9.76 9.75,-9.74 z m 83.37,142.85 h -25.73 v 18.64 h 25.73 z m -65.65,-398.36 h -31.93 v -43.47 h 31.93 z m 45.23,0 h -32.82 v -43.47 h 32.82 z m 44.4,0 h -32.84 v -43.47 h 32.84 z m 44.35,0 h -32.85 v -43.47 h 32.85 z m 43.45,0 h -31.05 v -43.47 h 31.05 z m -221.78,0 h -31.94 v -43.47 h 31.94 z m 68.33,93.17 -8.02,15.99 -2.66,3.53 -11.52,-19.52 3.54,-1.79 7.98,13.34 7.12,-13.34 z m 16.82,-35.49 -7.97,15.1 -2.65,3.53 -11.54,-18.63 3.55,-1.78 7.99,13.29 7.09,-13.29 z m 44.39,0 -8,15.1 -2.67,3.53 -11.52,-18.63 3.53,-1.78 7.99,13.29 8.01,-13.29 z m 45.24,0 -9.76,15.1 -1.76,3.53 -10.68,-18.63 2.66,-1.78 8.02,13.29 7.96,-13.29 z m -22.2,35.49 -9.74,15.99 -1.78,3.53 -11.52,-19.52 3.55,-1.79 7.97,13.34 7.1,-13.34 z m -44.33,0 -8.88,15.99 -1.78,3.53 -11.55,-19.52 3.54,-1.79 8.01,13.34 7.09,-13.34 z m -66.57,-35.49 -8.84,15.1 -2.67,3.53 -11.55,-18.63 3.54,-1.78 8.01,13.29 7.09,-13.29 z m -14.17,71.85 -42.61,-105.56 0.89,-0.89 0.89,-1.78 8,11.54 6.19,-9.76 1.79,-1.78 1.78,1.78 6.19,9.76 7.99,-12.42 1.76,2.66 6.25,10.62 5.31,-10.62 2.66,-2.66 7.08,12.42 7.09,-9.76 0.9,-1.78 1.77,1.78 6.21,9.76 6.24,-9.76 1.76,-1.78 1.79,1.78 6.21,9.76 6.19,-9.76 1.78,-2.66 1.75,2.66 6.21,10.62 5.36,-10.62 2.65,-2.66 0.9,2.66 6.19,9.76 7.1,-9.76 0.89,-1.78 7.97,11.54 6.24,-9.76 1.78,-1.78 1.77,1.78 6.21,9.76 7.96,-12.42 1.77,2.66 6.21,10.62 6.2,-10.62 1.81,-2.66 7.09,12.42 7.1,-9.76 0.88,-1.78 7.98,11.54 6.2,-9.76 1.79,-1.78 1.79,1.78 6.2,9.76 7.98,-11.54 0.89,1.78 0.89,0.89 -42.59,105.56 z m 227.09,-119.77 v 6.21 h 4.45 v -7.08 l -2.67,2.66 z m -319.36,-0.87 v 7.08 h 4.42 v -6.21 l -1.75,1.79 z m 298.97,69.2 v 6.21 h 4.46 v -6.21 l -1.79,2.66 z m -279.49,0 v 6.21 h 5.32 v -6.21 l -2.64,2.66 z m -7.97,-77.21 -8.84,8.88 -9.76,-8.88 9.76,-10.64 z m 319.42,0 -9.79,8.88 -8.86,-8.88 8.86,-10.64 z m -19.54,69.19 -9.75,8.91 -9.76,-8.91 9.76,-10.63 z m -278.57,0 -10.66,8.91 -9.75,-8.91 9.75,-10.63 z m 222.67,-1087.68 h 15.09 v 185.41 h -15.09 z m -24.83,0 h 14.18 v 185.41 h -14.18 z m -25.74,0 h 14.2 v 185.41 h -14.2 z m -25.72,0 h 14.22 v 185.41 h -14.22 z m -25.73,0 h 14.21 v 185.41 h -14.21 z m -25.72,0 h 14.19 v 185.41 h -14.19 z m -25.73,0 h 15.08 v 185.41 h -15.08 z m -24.84,0 h 14.21 v 185.41 h -14.21 z m -25.74,0 h 14.19 v 185.41 h -14.19 z m -25.72,0 h 14.18 v 185.41 h -14.18 z m 255.51,0 h 14.2 v 185.41 H 4405 Z m 14.2,-202.3 v 191.63 H 4405 v -191.63 h -10.65 v 191.63 h -15.09 v -191.63 h -10.65 v 191.63 h -14.18 v -191.63 h -11.54 v 191.63 h -14.2 v -191.63 h -11.5 v 191.63 h -14.22 v -191.63 h -11.52 v 191.63 h -14.21 v -191.63 h -11.53 v 191.63 h -14.19 v -191.63 h -10.65 v 191.63 h -15.08 v -191.63 h -10.63 v 191.63 h -14.21 v -191.63 h -11.55 v 191.63 h -14.19 v -191.63 h -11.54 v 191.63 h -14.18 v -191.63 h -11.54 v 396.59 h 292.78 v -396.59 z m 33.72,-220.9 h -343.37 v 204.92 h 343.37 z m -9.79,1387.58 h -15.93 v 113.56 l -1.79,-1.76 -2.67,1.76 V 3540 l -3.54,4.43 -3.55,-6.22 -3.56,-6.21 -4.43,6.21 -3.56,6.22 -4.42,-6.22 -3.55,-6.21 -4.42,6.21 -3.56,6.22 -4.43,-6.22 -3.56,-6.21 -3.55,6.21 -4.44,6.22 -3.56,-6.22 -4.42,-6.21 -3.55,6.21 -4.43,6.22 -3.52,-6.22 -3.57,-6.21 -4.46,6.21 -3.55,6.22 -4.42,-6.22 -3.56,-6.21 -4.44,6.21 -3.52,6.22 -4.45,-6.22 -3.53,-6.21 -3.6,6.21 -4.42,6.22 -3.54,-6.22 -4.43,-6.21 -3.54,6.21 -4.45,6.22 -3.54,-6.22 -3.55,-6.21 -4.46,6.21 -3.55,6.22 -4.43,-6.22 -3.53,-6.21 -4.44,6.21 -3.53,6.22 -4.46,-6.22 -3.54,-6.21 -3.55,6.21 -4.45,6.22 -3.54,-6.22 -4.44,-6.21 -3.54,6.21 -4.45,6.22 -3.53,-6.22 -3.55,-6.21 -4.43,6.21 -3.54,6.22 -4.47,-6.22 -3.54,-6.21 -4.44,6.21 -3.55,6.22 -4.42,-6.22 -3.55,-6.21 -3.53,6.21 -4.45,6.22 -3.57,-6.22 -4.43,-6.21 -3.54,6.21 -4.44,6.22 -3.56,-6.22 -3.53,-6.21 -4.44,6.21 -3.53,6.22 -3.6,-5.32 v 37.25 l -2.64,-1.76 -2.68,1.76 V 3532 3462.8 h -15.06 v 44.36 l -1.75,-2.65 -2.67,2.65 v -44.36 -323.82 h 323.81 v 323.82 44.36 l -2.67,-2.65 -1.78,2.65 v -44.36"
         style="fill:#3f87cf;fill-opacity:1;fill-rule:evenodd;stroke:none"
         id="path24" />
      <path
         d="m 7677.94,3146.95 v -19.51 l -16.85,7.97 v 81.62 l -37.29,17.77 v -82.52 l -16.85,8.87 v 81.62 l -36.35,17.78 v -82.54 l -17.78,8.86 v 81.65 l -35.48,17.71 v -82.49 l -17.73,8.87 v 81.64 l -36.41,16.83 v -80.71 l -16.83,7.97 v 81.6 l -37.27,17.77 v -81.62 l -16.85,7.98 v 81.61 l -36.39,17.77 v -81.64 l -16.84,8.01 v 81.6 l -37.26,17.76 v -81.64 l -16.87,7.97 v 81.65 l -36.37,17.71 v -81.6 l -17.73,7.98 v 81.64 l -35.52,17.73 v -81.6 l -4.43,1.75 v -275.05 l 419.67,-201.37 v 127.74 h 94.04 v 134.86 z m -651.23,-576.69 12.43,6.21 v -94.93 l 20.4,8.87 v 94.93 l 42.6,20.41 v -94.93 l 19.5,9.75 v 94.93 l 42.59,20.42 v -94.93 l 20.41,9.75 v 94.93 l 42.59,20.42 v -94.93 l 19.52,9.74 v 94.94 l 42.58,20.41 v -94.93 l 20.42,8.87 v 95.82 l 42.57,20.42 v -94.94 l 19.54,8.86 v 94.93 l 42.57,21.29 v -94.91 l 20.41,8.86 v 94.93 l 41.69,20.39 v -94.93 l 20.41,9.78 v 94.93 l 42.59,20.4 v -94.94 l 19.5,9.77 v 94.93 l 42.61,20.41 v -94.95 l 8.87,3.55 v -319.38 l -583.8,-280.38 z m -257.27,360.21 H 6820 v 50.57 h -50.56 z m 150.8,60.34 v -160.57 h -246.63 v 160.57 z m -128.64,133.98 -151.69,-126.88 h 314.05 z m 830.43,-415.22 h 371.77 v -37.27 h -371.77 z m 0,191.62 h 371.77 v -17.73 h -371.77 z m 138.4,34.6 h 63 v -13.31 h -63 z m 99.39,45.25 h 62.96 v -12.4 h -62.96 z m 36.38,-512.79 h 62.97 v -12.44 h -62.97 z m -240.46,-3.54 h 63 v -13.34 h -63 z m 30.17,-16.88 h 63 v -13.29 h -63 z m 30.16,-16.85 h 63 v -13.31 h -63 z m 48.81,126.86 h 63.9 v -13.29 h -63.9 z m 75.41,0 h 63 v -13.29 h -63 z m -37.24,23.96 h 63.86 v -14.18 h -63.86 z m -44.4,16.88 h 63 v -13.34 h -63 z m 77.22,2.64 h 62.99 v -13.31 h -62.99 z m -93.16,219.12 v -74.51 h -59.47 v 74.51 c 0,14.23 13.33,25.75 29.3,25.75 16.85,0 30.17,-11.52 30.17,-25.75 z m 95.82,0 v -74.51 h -59.46 v 74.51 c 0,14.23 13.3,25.75 29.28,25.75 15.97,0 30.18,-11.52 30.18,-25.75 z m 95.82,0 v -74.51 h -59.46 v 74.51 c 0,14.23 12.41,25.75 29.29,25.75 15.96,0 30.17,-11.52 30.17,-25.75 z m -219.15,145.53 h 62.97 v -12.43 h -62.97 z m 75.4,127.76 h 41.72 v 41.68 h -41.72 z m 124.21,47.89 v -141.05 h 78.99 V 2387.5 h -371.77 v 613.07 h 89.61 v 141.05 z m -105.57,112.69 -125.1,-105.58 h 259.07 z m -775.41,321.16 h 30.14 v 29.3 h -30.14 z m 89.59,38.15 v -99.35 h -146.38 v 99.35 z m -76.29,77.2 -88.74,-74.54 h 182.77 z m -480.89,-993.67 h 448.96 v -15.99 h -448.96 z m 165.9,42.59 h 76.33 v -16.89 h -76.33 z m 121.56,55.02 h 76.29 v -16 h -76.29 z m -175.65,-18.67 h 76.3 v -15.93 h -76.3 z m 149.04,-175.66 v -91.37 h -71.87 v 91.37 c 0,16.86 15.98,31.06 35.49,31.06 20.42,0 36.38,-14.2 36.38,-31.06 z m 116.23,0 v -91.37 h -71.86 v 91.37 c 0,16.86 15.08,31.06 35.49,31.06 19.51,0 36.37,-14.2 36.37,-31.06 z m -232.45,0 v -91.37 h -71.86 v 91.37 c 0,16.86 15.96,31.06 36.38,31.06 19.5,0 35.48,-14.2 35.48,-31.06 z m -104.68,-430.27 h 76.29 v -16.88 h -76.29 z m 36.37,-21.31 h 76.3 v -15.96 h -76.3 z m 36.38,-20.4 h 76.28 v -15.98 h -76.28 z m 60.33,153.47 h 75.41 v -15.96 h -75.41 z m 89.59,0 h 76.33 v -15.96 h -76.33 z m -44.36,28.39 h 76.29 v -15.94 h -76.29 z m -53.24,20.41 h 76.33 v -15.98 h -76.33 z m 93.17,3.57 h 76.31 v -15.99 h -76.31 z m 71.86,-160.59 h 76.32 v -15.99 h -76.32 z m 118.91,277.67 v -376.15 h -448.96 v 376.15 z m -448.96,366.43 h 448.96 v -351.34 h -448.96 z m 446.29,644.12 h 45.23 v -9.77 h -45.23 z m 70.97,32.85 h 45.23 v -9.81 h -45.23 z m 25.73,-366.44 h 45.24 v -9.77 h -45.24 z m -172.11,-2.67 h 45.24 v -8.88 h -45.24 z m 22.17,-12.42 h 45.25 v -9.75 h -45.25 z m 22.18,-11.53 h 44.35 v -9.75 h -44.35 z m 34.6,90.51 h 45.24 v -9.79 h -45.24 z m 53.25,0 h 45.23 v -9.79 h -45.23 z m -26.62,16.84 h 45.22 v -9.74 h -45.22 z m -31.96,11.52 h 45.25 v -8.86 h -45.25 z m 55.91,1.8 h 45.24 v -8.88 h -45.24 z m -66.53,157.89 v -54.1 h -42.62 v 54.1 c 0,9.81 8.9,17.78 21.31,17.78 11.51,0 21.31,-7.97 21.31,-17.78 z m 68.32,0 v -54.1 h -42.62 v 54.1 c 0,9.81 8.9,17.78 21.31,17.78 11.51,0 21.31,-7.97 21.31,-17.78 z m 67.42,0 v -54.1 h -42.62 v 54.1 c 0,9.81 10.68,17.78 21.31,17.78 12.41,0 21.31,-7.97 21.31,-17.78 z m -155.28,103.82 h 45.24 v -9.74 h -45.24 z m 197.85,-202.28 v -212.02 h -265.28 v 212.02 z m 0,136.63 v -118 h -265.28 v 118 z m -265.28,89.62 h 265.28 v -77.2 h -265.28 z m 801.16,-330.05 v 12.44 l -36.37,17.73 v -61.23 l 36.37,31.06"
         style="fill:#3f87cf;fill-opacity:1;fill-rule:evenodd;stroke:none"
         id="path26" />
      <path
         d="m 2767.21,2572.93 -30.16,-280.37 c -7.11,1.81 -14.2,3.56 -22.2,6.23 l 23.08,204.95 c 1.77,20.37 -15.97,38.13 -40.82,41.67 -24.83,2.68 -46.12,-11.5 -47.91,-32.81 l -21.28,-196.98 c -7.99,0.9 -15.09,1.79 -23.07,2.68 l 21.29,196.95 c 1.78,20.41 -15.97,39.03 -39.91,41.7 -23.97,2.69 -46.15,-11.54 -47.91,-31.95 l -22.21,-200.51 c -7.09,0.89 -14.18,0.89 -20.39,0.89 h -2.66 l 22.18,202.32 c 1.77,20.39 -15.98,39.02 -39.92,41.69 -24.85,2.66 -46.15,-11.55 -48.81,-31.94 l -23.05,-216.5 c -7.99,-0.89 -15.97,-1.75 -23.97,-2.65 l 23.97,221.8 c 2.66,19.54 -15.97,39.04 -39.93,41.7 -23.95,2.64 -46.15,-11.54 -47.91,-32.82 l -27.5,-247.53 c -8.88,-1.76 -18.64,-4.43 -27.5,-7.08 l 35.48,330 z m 21.3,190.77 -15.09,-133.1 -470.22,51.45 14.18,133.08 z m 20.4,189.84 -14.2,-132.2 -471.1,51.47 14.19,132.2 z m 21.29,190.76 -15.09,-132.21 -471.11,51.48 15.09,132.18 z m 20.42,190.76 -14.2,-132.21 -471.12,51.46 14.19,132.18 z m -358.45,205.81 v 0 l -10.66,-87.83 -30.14,3.55 8.86,87.84 c 1.77,7.07 8.89,12.43 17.74,10.67 8,0 14.2,-7.13 14.2,-14.23 z m 42.6,-4.42 v 0 l -9.77,-87.84 -31.06,2.64 9.78,87.86 c 0.87,7.97 7.97,12.39 16.85,11.51 8.86,-0.89 15.08,-7.08 14.2,-14.17 z m 43.46,-5.34 v 0 l -9.75,-87.83 -31.06,3.55 9.75,87.85 c 0.9,7.08 8,12.4 16.86,11.51 7.99,-0.9 14.2,-7.08 14.2,-15.08 z m 42.6,-4.42 v 0 l -9.77,-87.83 -31.06,3.53 9.77,87.86 c 0.89,7.08 7.97,12.41 16.85,10.62 8.87,0 15.08,-7.08 14.21,-14.18 z m 43.45,-4.43 v 0 l -9.75,-87.84 -31.04,2.65 9.76,87.85 c 0.89,7.98 7.98,12.41 16.85,12.41 7.99,-1.78 14.18,-7.96 14.18,-15.07 z m 42.6,-5.35 v 0 l -8.88,-87.81 -31.93,3.55 10.63,87.85 c 0,7.08 8,12.4 15.99,11.5 8.88,-0.89 15.97,-7.08 14.19,-15.09 z m 43.48,-4.43 v 0 l -9.76,-87.81 -31.06,3.53 9.76,87.83 c 0.89,7.12 7.98,12.44 16.86,10.66 8.87,0 15.09,-7.13 14.2,-14.21 z m 42.58,-4.42 v 0 l -8.86,-87.86 -31.06,2.69 9.75,87.8 c 0,8 7.99,12.46 15.98,12.46 8.87,-1.78 15.96,-8.01 14.19,-15.09 z m 43.48,-5.33 v 0 l -9.77,-87.86 -31.05,3.57 9.76,88.72 c 0.89,6.21 8.86,11.53 17.75,10.64 7.97,-0.89 14.19,-7.11 13.31,-15.07 z M 2427.4,3352.78 v 0 l -9.76,-87.81 -30.15,3.55 8.85,87.83 c 0.9,7.1 8.89,12.42 16.87,11.52 8.87,-0.89 15.09,-7.1 14.19,-15.09 z m 43.49,-4.43 v 0 l -9.77,-87.8 -31.06,3.52 9.77,87.82 c 0.89,7.13 7.98,12.45 16.85,10.67 8.87,0 15.08,-7.08 14.21,-14.21 z m 42.58,-4.42 v 0 l -9.75,-87.84 -30.17,3.56 8.86,86.91 c 1.79,7.98 8.88,12.46 17.76,12.46 7.98,-1.78 14.18,-8.01 13.3,-15.09 z m 43.46,-5.33 v 0 l -9.76,-87.86 -31.06,3.57 9.78,87.83 c 0.88,7.1 7.99,12.4 16.85,11.53 8.89,-0.89 15.09,-7.11 14.19,-15.07 z m 43.49,-4.43 v 0 l -10.65,-87.86 -30.17,3.54 8.88,87.86 c 1.77,7.08 8.86,12.4 17.75,10.64 7.97,0 14.19,-7.1 14.19,-14.18 z m 42.58,-4.43 v 0 l -9.75,-87.86 -31.06,3.54 9.75,86.96 c 0.89,7.97 7.99,12.41 16.85,12.41 8.89,-1.76 15.09,-7.97 14.21,-15.05 z m 43.48,-5.32 v 0 l -9.78,-87.86 -31.04,3.54 9.76,88.75 c 0.89,6.21 7.98,11.5 16.86,10.63 7.98,-0.88 14.2,-7.1 14.2,-15.06 z m 42.57,-3.59 v 0 l -8.86,-88.7 -31.94,3.54 10.66,87.86 c 0,7.08 7.97,12.4 15.94,10.64 8.89,0 15.09,-7.11 14.2,-13.34 z m 43.48,-5.32 v 0 l -9.76,-87.8 -31.06,3.53 9.77,86.94 c 0.88,7.99 7.99,12.43 16.86,12.43 7.99,-1.76 15.08,-7.97 14.19,-15.1 z m 42.58,-5.31 v 0 l -8.86,-86.93 -31.05,2.65 9.76,88.7 c 0,7.13 7.98,11.55 15.97,10.69 8.86,-0.89 15.96,-7.13 14.18,-15.11 z M 2407,3160.29 v 0 l -9.76,-86.97 -31.94,2.65 9.76,87.86 c 0.89,7.97 8.86,12.39 17.74,11.5 8.89,-0.86 15.09,-7.08 14.2,-15.04 z m 42.58,-4.46 v 0 l -9.75,-87.83 -30.17,3.54 8.88,87.85 c 0.88,7.08 8.86,12.41 16.86,11.52 8.86,-0.87 15.07,-7.98 14.18,-15.08 z m 43.48,-4.45 v 0 l -9.76,-87.81 -31.05,3.54 9.75,87.8 c 0,7.13 8,12.46 16.86,10.68 8.88,-0.87 15.08,-7.08 14.2,-14.21 z m 42.59,-5.32 v 0 l -9.76,-86.92 -30.17,2.65 8.87,87.81 c 0.89,8.02 8.88,12.44 17.75,11.55 7.98,-0.86 14.2,-7.1 13.31,-15.09 z m 43.46,-4.44 v 0 l -9.75,-87.82 -31.04,3.56 9.75,87.81 c 0.88,7.11 7.99,12.45 16.85,11.55 8.88,-0.89 15.08,-7.99 14.19,-15.1 z m 43.48,-4.42 v 0 l -10.65,-87.83 -30.17,3.53 8.89,87.84 c 1.77,7.09 8.87,12.42 17.74,11.54 7.97,-0.9 14.19,-7.98 14.19,-15.08 z m 42.59,-4.43 v 0 l -9.76,-87.85 -31.05,2.67 9.77,87.82 c 0.88,8 7.97,12.42 16.85,11.54 8.86,-0.89 15.08,-7.08 14.19,-14.18 z m 43.48,-5.33 v 0 l -9.75,-87.83 -31.06,3.54 9.75,87.84 c 0.89,7.1 7.99,12.42 16.85,11.53 8,-0.9 14.21,-7.11 14.21,-15.08 z m 42.59,-4.42 v 0 l -8.89,-87.85 -31.93,3.55 9.76,87.84 c 0.89,7.1 8.86,12.42 16.86,11.53 8.86,-0.89 15.07,-7.97 14.2,-15.07 z m 43.46,-4.46 v 0 l -9.75,-87.83 -31.05,2.67 9.75,88.7 c 0.88,7.13 7.99,11.56 16.85,10.67 8,-0.9 15.09,-7.11 14.2,-14.21 z m -409,-149.92 v 0 l -9.76,-87.87 -31.06,2.69 9.76,87.82 c 0.9,8 8.88,12.42 16.87,12.42 7.97,-1.77 15.09,-7.98 14.19,-15.06 z m 42.59,-5.33 v 0 l -8.88,-87.85 -31.93,3.56 9.75,88.72 c 0.89,6.22 8.88,11.54 17.74,10.65 8,-0.9 15.08,-7.11 13.32,-15.08 z m 43.46,-4.42 v 0 l -9.76,-87.85 -30.16,3.55 8.88,87.84 c 0.88,7.1 8.86,12.42 16.85,10.64 8.87,0 15.09,-7.1 14.19,-14.18 z m 43.48,-4.48 v 0 l -9.76,-87.81 -31.06,2.67 9.78,87.83 c 0,8 7.97,12.43 16.85,12.43 8.87,-1.79 15.06,-8 14.19,-15.12 z m 42.59,-5.31 v 0 l -9.76,-87.82 -30.16,3.56 8.86,88.7 c 0.89,6.24 8.88,11.56 16.86,10.66 8.88,-0.89 15.09,-7.1 14.2,-15.1 z m 43.48,-4.42 v 0 l -9.78,-87.85 -31.04,3.58 9.76,87.81 c 0.89,7.08 7.98,12.42 16.86,11.56 8.87,-0.89 15.08,-8.02 14.2,-15.1 z m 43.46,-4.46 v 0 l -10.63,-87.82 -30.17,2.64 8.86,87.85 c 1.77,7.98 8.87,12.41 17.75,12.41 7.99,-1.76 14.19,-7.97 14.19,-15.08 z m 42.59,-5.29 v 0 l -9.76,-87.86 -31.06,3.55 9.77,88.74 c 0.88,6.19 7.97,11.51 16.85,10.61 8.87,-0.87 15.09,-7.08 14.2,-15.04 z m 43.47,-4.46 v 0 l -10.64,-87.82 -30.17,3.54 9.77,87.85 c 0.88,7.08 7.97,12.4 16.86,11.51 7.97,-0.87 14.18,-7.97 14.18,-15.08 z m 42.59,-4.43 v 0 l -8.88,-87.83 -31.93,3.54 9.75,87.86 c 0.9,7.07 8,11.51 16.86,11.51 8.89,-1.76 15.08,-7.98 14.2,-15.08 z m -409.01,-149.95 v 0 l -8.86,-87.82 -31.94,3.56 9.75,86.93 c 0.89,7.98 7.99,12.41 16.85,12.41 8.88,-1.79 15.09,-7.97 14.2,-15.08 z m 43.48,-5.31 v 0 l -9.76,-87.84 -31.06,3.54 9.76,87.86 c 0.89,7.08 8.88,12.4 16.87,11.5 7.99,-0.89 15.08,-7.08 14.19,-15.06 z m 42.58,-4.44 v 0 l -8.87,-87.82 -31.94,3.53 9.76,87.86 c 0.89,7.08 8.88,12.39 17.75,11.51 7.98,-0.89 14.2,-7.97 13.3,-15.08 z m 43.47,-4.43 v 0 l -9.74,-87.83 -31.06,3.54 9.76,86.96 c 0.87,7.97 8.86,12.41 16.85,12.41 8.88,-1.78 15.08,-7.98 14.19,-15.08 z m 43.48,-5.34 v 0 l -9.76,-86.92 -31.06,2.65 8.88,88.73 c 0.9,7.09 8.87,11.52 17.75,10.63 8.86,-0.88 15.09,-7.08 14.19,-15.09 z m 42.58,-3.54 v 0 l -9.75,-88.7 -30.17,3.54 8.87,87.81 c 0.88,7.12 8.88,12.44 16.86,11.56 8.87,-0.9 15.08,-7.97 14.19,-14.21 z m 43.49,-5.32 v 0 l -9.78,-87.81 -31.04,3.54 9.76,87.8 c 0.89,7.13 7.99,11.56 16.85,11.56 8.88,-1.77 15.09,-8.01 14.21,-15.09 z m 42.58,-5.32 v 0 l -9.76,-86.97 -30.17,2.68 8.88,88.72 c 0.89,7.1 8.86,11.55 17.74,10.64 7.98,-0.89 14.19,-7.11 13.31,-15.07 z m 43.47,-3.54 v 0 l -9.75,-88.75 -31.05,3.57 9.75,87.82 c 0.88,7.11 7.99,12.43 16.85,11.54 8.87,-0.89 15.09,-8 14.2,-14.18 z m 43.48,-5.32 v 0 l -10.66,-87.86 -30.16,3.56 9.76,87.83 c 0.89,7.11 7.98,12.41 16.86,11.54 7.98,-1.78 14.2,-7.99 14.2,-15.07 z m -304.33,811.76 -9.74,-87.8 -31.06,3.55 9.75,87.83 c 0.9,7.1 7.99,12.42 16.87,11.55 8.87,-0.9 15.07,-7.13 14.18,-15.13 z m 228.91,142 -6.2,-54.14 -52.35,6.22 6.2,54.13 c 0.89,15.06 14.2,26.62 29.28,23.92 14.21,-0.89 23.96,-14.18 23.07,-30.13 z m 89.61,-9.79 -6.21,-54.1 -52.34,6.21 6.19,54.1 c 1.8,15.1 15.09,25.74 29.29,23.97 14.2,-0.89 24.85,-14.18 23.07,-30.18 z m -180.1,20.42 -5.34,-54.12 -52.34,5.31 5.34,54.13 c 1.77,15.07 15.06,26.62 29.26,24.86 14.2,-1.79 24.86,-15.1 23.08,-30.18 z m 205.83,-110.01 16.85,152.58 -302.53,32.84 -16.86,-152.58 z m -485.31,-726.63 500.39,-55.02 -3.55,-31.05 -500.38,55.03 z m 20.41,190.73 501.27,-54.99 -4.44,-31.05 -500.38,54.99 z m 21.29,189.87 500.39,-55.01 -3.55,-30.15 -500.38,54.1 z m 20.41,190.77 500.39,-55.02 -2.66,-31.07 -501.29,55.02 z m 20.41,189.86 501.28,-54.12 -3.56,-31.06 -500.38,55.01 z m 89.6,165.02 360.21,-39.04 2.66,26.6 -360.21,39.05 z m -193.4,-1117.01 500.37,-55.02 -2.64,-30.16 -501.3,55.01 z m 209.37,-359.32 c 245.76,0 457.81,-97.59 543.86,-235.98 h -1089.5 c 87.84,138.39 298.99,235.98 545.64,235.98 z m 375.3,1214.59 -14.2,-133.07 -471.11,51.45 14.19,133.08 471.12,-51.46"
         style="fill:#3f87cf;fill-opacity:1;fill-rule:evenodd;stroke:none"
         id="path28" />
      <path
         d="m 6533.42,2171.91 c -0.9,0.89 -0.9,1.79 -1.78,2.68 v 0 z m -264.39,-62.1 c -2.66,2.66 -6.21,4.44 -9.75,6.2 3.54,-1.76 7.09,-3.54 9.75,-6.2 z m -54.1,80.72 c 3.54,0 6.2,0 9.75,-0.87 -3.55,0.87 -6.21,0.87 -9.75,0.87 z m -59.46,17.77 v 0 c 3.55,-0.9 7.09,-2.68 11.52,-4.44 -4.43,1.76 -7.97,3.54 -11.52,4.44 z m -245.74,-102.04 -339.83,-3.55 45.27,55 v 0 l 16.85,19.53 v 0 l 10.67,13.29 v 0 l 16.82,19.54 v 0 l 10.65,13.29 v 0 l 15.98,18.64 224.47,269.71 226.25,-265.28 c -1.81,-1.76 -4.47,-4.43 -6.23,-6.19 l 142.85,133.08 v 3.54 -3.54 c 28.38,-24.85 56.76,-49.7 85.16,-73.63 19.53,31.03 53.24,70.09 95.83,65.63 v 0 c 73.63,-2.64 84.29,-116.22 84.29,-116.22 l -39.06,-0.89 0.89,-22.19 c 14.21,-14.18 24.84,-31.93 31.05,-51.43 0.88,-0.89 0.88,-1.79 1.78,-2.68 l 2.68,-3.53 0.89,-2.66 c 1.77,-3.56 2.66,-7.12 5.32,-11.55 l -157.05,-0.89 c 52.37,0 104.68,0.89 157.05,0.89 l -2.66,4.43 -1.78,4.45 -0.88,2.67 c 1.77,-3.56 2.66,-7.12 5.32,-11.55 1.77,-5.32 7.97,-20.39 8.86,-25.72 l 82.5,-3.58 c 13.33,-3.54 20.41,-2.65 29.28,-46.11 l -255.49,-1.78 c 0.87,-4.42 -120.67,1.78 -120.67,1.78 l -259.08,2.65 c 0,0 0,15.98 -1.77,23.09 l -116.21,1.76"
         style="fill:#3f87cf;fill-opacity:1;fill-rule:evenodd;stroke:none"
         id="path30" />
      <path
         d="m 6210.48,2808.05 h -40.79 v 14.18 c -47.05,-4.43 -95.83,-6.21 -143.75,-7.1 v -84.28 h 184.54 z m -410.79,15.07 v -15.07 h -40.8 v -77.2 h 185.44 v 85.17 c -47.92,0.88 -95.82,3.53 -144.64,7.1 z m 600.64,-111.79 v -26.63 h -135.75 v -142.83 h 58.57 l -40.8,-13.29 v -453.36 h -89.62 v 452.48 l -41.69,14.17 h 59.44 v 142.83 h -451.59 v -142.83 h 59.45 l -40.8,-13.29 v -453.36 h -90.51 v 452.48 l -39.92,14.17 h 58.53 V 2684.7 H 5569.9 v 26.63 h -36.36 v 19.52 h 172.1 v 77.2 h -40.81 v 30.16 c -55.87,7.98 -113.54,17.73 -171.22,29.28 v 65.65 c -21.31,3.54 -43.47,7.98 -65.66,13.3 v 53.26 c -24.84,4.42 -50.55,9.75 -75.39,15.05 0,15.98 0,31.94 0,47.94 426.75,-71.88 848.15,-67.43 1264.27,0 0,-16 0,-31.96 0,-47.94 -24.85,-5.3 -49.71,-10.63 -75.41,-15.05 v -53.26 c -21.31,-5.32 -43.5,-9.76 -65.65,-14.18 v -64.77 c -55.9,-12.45 -113.59,-23.07 -171.23,-31.05 v -28.39 h -39.96 v -77.2 h 171.26 v -19.52 h -35.51"
         style="fill:#3f87cf;fill-opacity:1;fill-rule:evenodd;stroke:none"
         id="path32" />
      <path
         d="m 5445.71,6089.84 c 13.3,3.54 7.98,24.85 -6.23,21.28 l -21.28,-6.2 c -13.32,-3.54 -8.85,-25.73 6.2,-21.29 z m 84.27,23.08 c 14.22,4.42 7.98,24.82 -5.32,21.28 l -22.18,-5.33 c -14.19,-4.43 -7.99,-24.84 6.23,-21.29 z m 85.19,20.4 c 13.3,2.66 9.75,24.83 -5.33,21.29 l -21.3,-4.43 c -15.05,-4.45 -7.97,-24.86 5.33,-21.31 z m 85.15,17.74 c 14.22,2.66 10.67,23.95 -3.54,21.29 l -22.15,-3.55 c -13.34,-2.66 -9.8,-24.84 4.42,-22.17 z m 86.97,15.08 c 15.06,2.66 9.74,23.95 -3.55,21.3 l -22.19,-3.55 c -14.18,-2.66 -9.75,-23.97 3.54,-21.31 z m 86.95,10.64 c 13.29,1.77 12.42,23.96 -2.68,22.19 -7.11,-0.88 -15.08,-1.77 -22.17,-2.68 -13.33,-0.88 -12.44,-23.05 2.67,-21.28 7.09,0.88 14.18,1.77 22.18,1.77 z m 86.93,8.88 c 14.22,0.88 13.33,23.06 -1.77,21.29 l -22.2,-1.77 c -14.18,-0.89 -12.41,-22.18 1.78,-21.29 z m 86.96,4.43 c 15.96,0.89 13.3,23.07 -0.88,22.2 l -21.31,-0.91 c -15.08,-0.89 -13.29,-23.06 0.89,-22.18 z m 87.81,1.78 c 14.21,0 15.1,21.29 0,22.19 -7.09,0 -15.07,0 -22.16,0 -13.33,0 -15.09,-22.19 0,-22.19 7.98,0 15.07,0 22.16,0 z m 87.85,-2.67 c 15.1,0 14.21,22.18 0.89,22.18 l -22.2,0.91 c -15.06,0 -15.06,-21.31 -0.88,-22.2 z m 86.95,-5.31 c 14.18,-1.78 16.84,20.4 1.78,22.17 l -22.19,1.77 c -13.29,0.89 -16.85,-20.39 -0.89,-22.17 z m 86.93,-8.88 c 15.11,-1.77 16.88,19.52 2.66,21.28 l -21.27,2.68 c -15.1,1.77 -16.88,-20.42 -2.66,-21.3 z m 86.96,-13.32 c 13.29,-2.66 18.65,18.65 3.54,21.31 -7.09,1.78 -14.18,2.66 -22.18,4.44 -12.42,1.76 -18.61,-19.52 -3.55,-22.18 8.01,-0.89 15.1,-2.68 22.19,-3.57 z m 86.08,-16.86 c 14.18,-2.65 17.72,19.54 4.43,22.2 l -22.2,4.43 c -14.18,2.66 -17.75,-18.63 -3.54,-21.28 z m 85.15,-19.51 c 12.44,-3.54 20.41,16.86 5.31,21.31 l -21.26,5.31 c -15.99,3.55 -18.65,-18.62 -5.33,-21.3 z m 84.3,-23.05 c 14.19,-4.44 19.5,16.85 6.2,20.39 l -21.31,6.21 c -14.18,4.45 -20.38,-16.85 -6.19,-20.4 z m 83.38,-27.51 c 15.1,-4.44 19.54,17.74 7.09,21.28 l -21.27,7.11 c -15.1,4.43 -19.53,-16.85 -7.09,-21.29 z m 81.65,-30.17 c 13.29,-5.32 22.14,15.08 7.96,21.3 l -20.42,7.09 c -13.28,5.32 -21.27,-15.08 -7.96,-20.4 z m 81.61,-32.83 c 14.21,-5.32 21.3,15.09 7.98,20.41 l -19.51,8.87 c -14.22,5.32 -22.19,-15.98 -8.87,-20.4 z m 78.93,-36.37 c 13.33,-6.21 23.09,13.31 9.8,19.51 l -19.54,9.77 c -12.42,6.21 -23.05,-13.32 -9.76,-19.51 z m 79,-39.03 c 13.29,-6.23 23.06,12.42 9.74,19.51 l -19.5,9.76 c -13.33,7.09 -22.18,-13.3 -9.78,-19.53 z m 77.17,-41.71 c 13.33,-7.1 22.18,12.43 10.67,18.63 l -19.54,11.54 c -13.29,6.2 -23.07,-13.32 -10.64,-19.52 z m 75.4,-44.36 c 11.56,-7.98 23.96,9.76 11.56,18.64 l -19.53,11.52 c -10.65,7.1 -23.94,-10.64 -10.65,-19.52 z m 73.66,-47.02 c 12.41,-7.99 23.93,10.64 12.41,18.63 l -18.6,11.54 c -12.45,7.98 -23.98,-10.66 -12.45,-18.63 z m 72.74,-49.68 c 12.41,-7.99 23.98,10.64 12.41,18.63 l -17.71,12.42 c -13.34,7.98 -24.86,-10.65 -12.44,-18.64 z m 70.99,-50.58 c 10.62,-8.87 24.84,7.98 13.29,16.87 l -17.73,13.31 c -11.53,8.86 -25.74,-8 -13.31,-17.75 z m 69.2,-54.11 c 11.55,-8.88 24.84,8.87 14.22,17.73 l -17.77,13.31 c -11.53,8.88 -24.85,-7.97 -13.3,-16.85 z m 61.22,-48.81 c 11.52,-8.87 24.84,8.88 13.29,16.87 l -8.86,7.98 c -12.41,9.76 -24.84,-8.86 -14.19,-16.86 z M 5333.9,6078.3 c -13.29,-4.44 -7.97,-24.83 7.1,-21.29 l 20.42,7.09 c 12.4,3.57 8.86,24.85 -7.1,20.42 z M 1360.99,5972.72 c 14.19,3.55 8.85,25.74 -6.23,21.29 l -20.4,-6.2 c -13.32,-3.55 -8.86,-24.85 6.22,-21.29 z m 85.16,23.07 c 14.2,4.45 7.98,25.73 -6.2,21.3 l -21.31,-5.33 c -14.2,-3.55 -7.97,-24.84 6.22,-21.29 z m 85.17,21.3 c 13.31,1.78 9.77,23.95 -5.31,21.29 l -21.31,-5.32 c -15.09,-3.56 -7.98,-24.85 5.33,-21.3 z m 85.17,16.87 c 14.2,2.65 10.65,24.82 -3.54,22.16 l -22.17,-4.43 c -13.32,-2.66 -9.78,-23.96 4.43,-21.3 z m 86.94,15.07 c 15.08,2.66 9.77,23.95 -3.54,21.29 l -22.18,-2.65 c -14.19,-3.57 -9.76,-24.86 3.54,-22.2 z m 86.97,11.53 c 13.28,0.88 12.41,23.07 -2.68,21.3 -7.09,-0.89 -15.07,-1.77 -22.17,-2.67 -13.32,-0.89 -12.42,-23.07 2.66,-21.29 7.1,0.88 14.19,1.77 22.19,2.66 z m 86.93,7.99 c 14.2,0.88 12.43,23.06 -1.77,22.17 l -22.19,-1.77 c -14.19,-0.88 -12.4,-23.06 1.79,-22.18 z m 86.94,4.43 c 15.98,1.78 13.32,23.06 -0.87,22.18 l -21.3,-0.89 c -15.08,-0.89 -13.31,-23.06 0.89,-22.18 z m 87.84,1.78 c 14.19,0 15.08,22.17 0,22.17 -7.09,0 -15.07,0 -22.18,0 -13.31,0 -15.08,-22.17 0,-22.17 7.99,0 15.09,0 22.18,0 z m 87.84,-1.78 c 15.09,-0.89 14.2,21.29 0.89,21.29 l -22.2,0.89 c -15.06,0.88 -15.06,-21.3 -0.87,-21.3 z m 86.94,-6.21 c 14.21,-0.88 16.87,20.41 1.78,22.18 l -22.18,1.77 c -13.3,1.78 -16.85,-20.4 -0.88,-22.17 z m 86.94,-8.87 c 15.09,-1.78 16.87,20.4 2.67,21.29 l -21.29,2.67 c -15.08,1.77 -16.85,-20.42 -2.66,-21.3 z m 86.97,-13.31 c 13.29,-2.67 18.62,18.63 3.54,22.18 -7.1,0.9 -15.09,2.66 -22.19,3.55 -13.29,2.66 -18.62,-18.63 -3.54,-22.18 7.1,-0.88 15.09,-1.78 22.19,-3.55 z m 86.05,-15.98 c 14.2,-2.65 17.74,18.65 4.44,21.31 l -22.17,4.43 c -14.21,2.66 -18.65,-18.63 -4.46,-21.29 z m 85.17,-20.4 c 12.42,-3.54 20.41,16.85 5.32,21.29 l -21.28,5.34 c -15.98,3.54 -18.64,-18.63 -5.32,-21.29 z m 84.29,-23.05 c 13.31,-4.44 19.52,16.85 6.2,21.28 l -21.28,6.21 c -14.2,3.56 -20.4,-17.75 -6.21,-21.3 z m 83.39,-26.63 c 15.09,-4.43 19.52,16.86 7.1,20.4 l -21.29,7.11 c -15.08,4.43 -19.51,-16.86 -7.09,-20.41 z m 163.25,-63.88 c 14.2,-5.32 21.29,15.08 7.99,20.42 l -20.41,8.86 c -13.31,5.32 -21.28,-15.09 -7.98,-20.4 z m 78.97,-36.37 c 13.29,-6.21 23.07,13.3 9.75,20.4 l -19.52,8.87 c -12.42,6.21 -23.05,-12.42 -9.76,-19.51 z m 78.95,-39.04 c 13.3,-6.22 22.19,13.32 9.76,19.51 l -19.51,10.66 c -13.31,6.21 -23.07,-13.31 -9.76,-19.53 z m 76.3,-41.71 c 14.21,-7.09 23.07,12.43 11.55,19.53 l -19.54,10.65 c -13.29,7.1 -23.05,-12.43 -10.63,-19.52 z m 76.32,-44.34 c 11.51,-7.11 23.94,10.63 10.63,18.62 l -18.63,11.53 c -11.53,7.1 -23.94,-10.64 -11.53,-18.63 z m 73.62,-47.03 c 12.43,-7.99 23.96,10.64 12.43,18.63 l -18.63,11.54 c -12.42,7.98 -24.85,-9.77 -12.42,-17.76 z m 72.75,-48.79 c 12.42,-8.89 23.97,10.63 12.42,17.73 l -18.62,12.43 c -12.42,8.86 -23.95,-10.65 -12.42,-17.74 z m 70.99,-51.46 c 10.64,-8.88 24.83,7.97 13.29,17.74 l -17.73,13.31 c -11.53,7.98 -25.73,-8.88 -13.3,-17.76 z m 69.2,-53.25 c 11.54,-8.86 24.83,7.99 14.2,16.87 l -17.74,14.19 c -11.55,8.88 -24.85,-8.86 -13.32,-17.75 z m 61.22,-48.77 c 11.53,-9.78 23.95,7.97 13.3,16.83 l -8.87,7.11 c -12.42,9.77 -24.85,-8 -14.19,-16.86 z m -2311.19,477.3 c -13.32,-4.44 -7.99,-24.83 7.09,-21.29 l 20.41,7.09 c 12.42,3.56 7.99,24.85 -7.1,21.31 z m 25.73,-87.83 c -24.85,-23.07 -17.74,-20.4 -75.41,-2.66 -50.58,15.08 -26.64,21.29 -71.86,-5.33 -40.83,-23.06 -107.37,-47.9 -138.419,-66.55 11.539,-25.71 110.899,-110 134.859,-144.6 -8.88,-4.43 -15.97,-7.11 -25.73,-11.54 -15.09,-7.98 -11.54,-7.98 -29.28,2.66 -39.04,22.19 -164.142,94.05 -188.978,103.82 -32.816,-14.2 -119.765,-58.56 -149.937,-56.8 -14.196,0.89 -37.278,5.33 -32.817,23.08 11.524,43.47 89.598,67.43 140.16,89.6 20.407,8.87 15.086,7.1 19.516,29.29 5.348,24.83 39.055,197.84 47.035,206.71 2.656,2.66 31.047,15.08 36.364,16.86 2.675,-15.98 4.457,-32.84 5.335,-49.69 l 8.86,-99.37 c 0,-15.08 2.66,-34.6 5.347,-48.79 23.055,10.65 46.115,21.3 70.075,31.94 118.89,56.79 96.72,18.63 125.09,82.51 15.98,35.49 15.08,56.77 50.58,51.46 -6.2,-70.97 13.31,-115.34 69.21,-152.6 z m 2954.4,858.82 c -14.17,-2.65 -18.64,18.63 -3.53,21.3 l 21.31,3.54 c 14.19,2.66 18.61,-19.52 3.53,-22.18 z m -86.96,-15.08 c -14.18,-2.66 -17.71,18.63 -3.52,21.29 l 21.29,3.54 c 15.07,2.67 18.62,-18.63 4.44,-21.29 z m -85.13,-18.63 c -13.34,-3.54 -20.42,17.74 -5.34,22.17 l 22.17,4.43 c 15.1,2.68 17.76,-19.51 4.43,-21.28 z m -85.2,-20.4 c -14.17,-3.56 -19.51,17.74 -5.31,21.28 l 21.29,5.33 c 13.3,3.54 19.51,-17.75 5.32,-21.3 z m -84.27,-23.97 c -15.1,-3.54 -19.53,17.75 -6.22,21.29 l 21.29,6.23 c 14.2,3.54 19.52,-17.75 5.34,-21.31 z m -83.41,-26.62 c -13.31,-4.43 -21.28,15.99 -7.09,20.42 7.09,2.66 14.2,5.32 21.29,7.09 12.43,5.32 20.4,-15.08 6.22,-20.41 -7.1,-2.65 -13.31,-4.42 -20.42,-7.1 z m -82.51,-30.15 c -13.31,-5.33 -21.28,15.08 -7.98,20.4 l 21.29,7.98 c 12.43,5.33 21.29,-15.07 7.1,-20.41 z m -80.74,-32.83 c -14.18,-5.33 -21.28,15.08 -8.86,20.41 l 20.41,8.85 c 14.19,5.35 21.28,-15.94 7.99,-20.4 z m -79.83,-36.39 c -12.43,-6.2 -23.07,13.32 -9.77,20.42 7.09,2.66 13.31,6.21 20.41,8.87 12.42,6.21 22.18,-13.3 8.88,-19.52 -6.23,-3.54 -13.32,-6.21 -19.52,-9.77 z m -78.07,-39.03 c -14.21,-7.09 -23.07,13.31 -10.66,19.52 l 19.51,10.65 c 13.32,6.2 23.08,-14.2 10.66,-20.4 z m -77.21,-42.58 c -11.52,-7.11 -23.95,11.53 -10.63,19.52 l 19.52,10.64 c 11.52,7.1 23.94,-11.52 10.64,-19.52 z m -74.52,-45.25 c -12.42,-7.99 -23.07,11.54 -11.53,18.63 l 18.63,11.55 c 12.43,7.96 23.96,-11.55 11.54,-18.64 z m -72.76,-48.79 c -10.63,-8 -24.83,8.86 -12.41,17.74 6.21,4.43 12.41,8.88 18.64,12.43 10.64,7.97 24.83,-8.88 12.41,-17.75 -6.21,-4.45 -12.41,-8 -18.64,-12.42 z M 3189.52,6301 c -12.43,-8.88 -24.84,8.86 -13.3,16.85 l 16.85,13.32 c 12.42,8.85 24.85,-8.88 13.31,-16.86 z m -69.2,-55 c -9.76,-8.89 -24.85,7.09 -13.31,16.84 l 16.86,14.2 c 12.42,9.76 24.85,-8.87 13.3,-16.86 z m -65.66,-56.8 c -10.65,-9.75 -25.73,6.21 -15.08,15.98 l 16.87,15.07 c 10.63,9.76 25.72,-7.09 14.18,-16.85 z m -63.87,-60.33 c -11.55,-9.75 -25.73,7.11 -15.09,15.96 l 15.09,15.09 c 11.53,10.66 25.73,-6.2 15.96,-15.96 z m -61.22,-62.1 c -9.76,-10.65 -26.62,4.44 -15.97,15.09 l 15.08,15.97 c 9.77,10.64 25.72,-4.45 15.96,-15.08 z m -59.44,-64.76 c -10.66,-10.66 -25.74,4.43 -15.96,15.08 l 14.18,15.97 c 10.63,11.53 25.72,-4.45 15.98,-14.19 z m -59.45,-69.21 c -7.98,-4.44 -17.74,2.67 -16.85,11.53 -0.89,5.33 3.54,12.42 9.76,13.31 l 7.09,8.88 c 8.88,10.64 26.62,-2.67 16.85,-14.19 l -1.76,-2.67 3.54,-0.88 c 14.2,-5.33 5.33,-25.74 -7.98,-20.42 z m -51.46,-66.53 c -8.86,-11.54 -25.71,1.77 -16.86,13.3 l 13.32,17.73 c 8.86,11.54 25.71,-2.65 16.85,-13.29 z m -51.46,-70.99 c -8.85,-11.52 -25.73,1.78 -17.74,13.31 l 12.43,17.74 c 8.86,11.54 26.6,-1.77 17.74,-13.31 z m -48.8,-71.86 c -7.08,-11.54 -26.62,-0.89 -18.62,11.54 l 12.42,18.63 c 7.09,11.52 26.61,0.88 17.75,-12.43 z m -47.02,-74.52 c -7.97,-12.43 -26.6,-0.9 -18.62,11.52 l 11.53,18.63 c 7.09,12.43 26.61,0.89 18.64,-11.52 z m -44.35,-75.42 c -7.99,-13.31 -26.62,-0.88 -19.52,10.65 l 11.53,19.52 c 7.99,13.31 25.74,0.89 18.63,-10.65 z m -42.59,-76.3 c -6.2,-12.41 -26.62,-3.55 -19.52,9.76 l 10.63,19.52 c 6.23,12.42 25.75,3.54 19.54,-10.66 z m -39.92,-78.07 c -7.11,-13.31 -26.62,-3.56 -19.53,9.75 l 9.77,19.52 c 6.19,13.31 25.73,2.67 19.51,-9.75 z m -33.71,-70.1 c -7.11,-14.2 -26.62,-3.54 -20.41,8.88 l 5.33,11.54 c 7.09,13.29 26.61,2.66 19.52,-9.76 z M 4335.8,6768.55 c 13.32,1.78 17.75,-18.62 2.65,-21.28 l -21.26,-2.67 c -13.34,-2.67 -18.66,18.64 -3.6,21.3 z m 14.2,-90.48 c 31.95,-9.77 24.82,-10.65 69.2,30.15 39.04,35.5 15.08,30.17 67.44,25.74 46.11,-3.55 117.09,2.66 153.47,-0.89 0.89,-27.51 -53.22,-146.4 -60.32,-188.08 9.75,0 17.74,0 28.36,0 16.89,0 13.34,-1.79 25.74,15.06 25.74,37.28 107.36,155.28 125.99,174.79 36.39,0.89 133.1,-0.88 159.71,12.43 12.42,7.09 31.94,21.28 20.39,35.48 -29.28,33.72 -110.01,22.18 -165.02,20.4 -22.16,0 -16.84,0.89 -31.06,18.64 -15.07,19.51 -119.76,162.36 -130.42,166.79 -4.44,0.89 -34.59,0 -39.93,0 3.56,-15.96 9.8,-31.94 15.99,-47.91 l 34.6,-93.15 c 6.21,-14.2 12.42,-32.82 16.86,-47.03 -25.72,0.9 -51.46,0 -78.07,0 -131.31,0 -94.93,-25.73 -148.18,20.41 -29.25,25.74 -38.14,44.37 -67.44,24.85 35.53,-61.22 37.29,-110.02 2.69,-167.68 z m 1009.63,-687.6 c -24.84,-23.06 -17.72,-20.4 -75.39,-3.55 -50.6,15.98 -26.62,21.29 -71.86,-4.42 -40.83,-23.97 -107.37,-47.92 -138.43,-66.55 11.56,-25.74 110.91,-110.02 134.88,-144.62 -8.89,-4.43 -15.98,-7.99 -25.73,-12.42 -15.09,-7.1 -11.55,-7.1 -29.28,3.54 -39.04,22.19 -164.15,93.17 -189,103.82 -32.81,-14.2 -119.77,-58.56 -149.92,-56.79 -14.21,0.88 -37.28,4.43 -32.81,22.18 11.51,43.47 89.59,67.43 140.17,89.61 20.38,8.86 15.05,7.98 19.5,30.17 5.35,23.95 39.06,197.85 47.04,206.71 3.54,2.67 31.04,14.2 36.36,16.86 2.66,-15.98 4.44,-33.72 5.33,-50.57 l 8.86,-98.48 c 0,-15.97 2.66,-34.61 5.34,-49.69 23.05,11.54 46.13,21.29 70.09,32.83 118.86,56.79 97.6,18.63 125.07,82.51 16,35.49 16,56.79 50.6,51.46 -6.21,-70.98 13.28,-115.34 69.18,-152.6 v 0"
         style="fill:#3f87cf;fill-opacity:1;fill-rule:evenodd;stroke:none"
         id="path34" />
      <path
         d="M 1864.02,1499.42 H 2352 c 65.64,0 118.89,-53.25 118.89,-118.9 V 892.551 c 0,-64.77 -53.25,-118.871 -118.89,-118.871 h -487.98 c -65.65,0 -118.88,54.101 -118.88,118.871 v 487.969 c 0,65.65 53.23,118.9 118.88,118.9 v 0"
         style="fill:#3f87cf;fill-opacity:1;fill-rule:evenodd;stroke:none"
         id="path36" />
      <path
         d="m 2620.83,1499.42 h 487.96 c 65.64,0 118.88,-53.25 118.88,-118.9 V 892.551 c 0,-64.77 -53.24,-118.871 -118.88,-118.871 h -487.96 c -65.66,0 -118.9,54.101 -118.9,118.871 v 487.969 c 0,65.65 53.24,118.9 118.9,118.9 v 0"
         style="fill:#3f87cf;fill-opacity:1;fill-rule:evenodd;stroke:none"
         id="path38" />
      <path
         d="m 3377.61,1499.42 h 487.97 c 64.77,0 118.89,-53.25 118.89,-118.9 V 892.551 c 0,-64.77 -54.12,-118.871 -118.89,-118.871 h -487.97 c -65.66,0 -118.88,54.101 -118.88,118.871 v 487.969 c 0,65.65 53.22,118.9 118.88,118.9 v 0"
         style="fill:#3f87cf;fill-opacity:1;fill-rule:evenodd;stroke:none"
         id="path40" />
      <path
         d="m 4134.39,1499.42 h 487.99 c 64.77,0 118.87,-53.25 118.87,-118.9 V 892.551 c 0,-64.77 -54.1,-118.871 -118.87,-118.871 h -487.99 c -65.65,0 -118.88,54.101 -118.88,118.871 v 487.969 c 0,65.65 53.23,118.9 118.88,118.9 v 0"
         style="fill:#3f87cf;fill-opacity:1;fill-rule:evenodd;stroke:none"
         id="path42" />
      <path
         d="m 4891.2,1499.42 h 487.98 c 64.76,0 118.86,-53.25 118.86,-118.9 V 892.551 c 0,-64.77 -54.1,-118.871 -118.86,-118.871 H 4891.2 c -65.66,0 -118.91,54.101 -118.91,118.871 v 487.969 c 0,65.65 53.25,118.9 118.91,118.9 v 0"
         style="fill:#3f87cf;fill-opacity:1;fill-rule:evenodd;stroke:none"
         id="path44" />
      <path
         d="m 5648,1499.42 h 487.94 c 64.77,0 118.9,-53.25 118.9,-118.9 V 892.551 c 0,-64.77 -54.13,-118.871 -118.9,-118.871 H 5648 c -65.66,0 -118.91,54.101 -118.91,118.871 v 487.969 c 0,65.65 53.25,118.9 118.91,118.9 v 0"
         style="fill:#3f87cf;fill-opacity:1;fill-rule:evenodd;stroke:none"
         id="path46" />
      <path
         d="M 2780.51,1084.2 V 911.18 h -95.81 v 450.69 h 131.32 c 61.2,0 106.45,-10.63 135.74,-32.81 30.16,-22.18 44.35,-56.77 44.35,-102.04 0,-26.58 -7.09,-49.67 -22.17,-70.98 -14.21,-20.4 -34.61,-36.37 -61.23,-48.77 67.43,-101.16 111.79,-166.809 132.19,-196.09 h -106.45 l -107.37,173.02 z m 0,78.07 h 30.17 c 30.17,0 53.23,4.42 67.43,15.08 14.19,9.76 21.3,25.74 21.3,47.02 0,21.28 -7.11,37.25 -22.19,46.14 -14.2,8.87 -37.26,13.31 -68.31,13.31 h -28.4 z m 900.53,-64.78 c -30.17,97.59 -47.02,152.61 -51.45,165.02 -3.56,13.32 -6.22,23.07 -7.99,31.05 -7.09,-26.6 -26.62,-91.35 -58.55,-196.07 z m 55.89,-187.201 -32.82,107.371 h -165.02 l -32.83,-107.371 h -102.92 l 159.71,452.471 h 116.23 l 160.56,-452.471 z m 749.71,451.581 h 96.71 L 4430.73,911.18 h -104.69 l -153.49,450.69 h 96.71 l 85.17,-267.92 c 4.44,-15.96 9.76,-34.61 14.18,-55.87 5.33,-20.42 8.88,-35.5 9.76,-43.521 2.68,18.661 9.78,51.481 23.09,99.391 z M 5264.7,911.18 h -259.95 v 450.69 h 259.95 v -78.05 h -164.13 v -99.37 h 152.61 v -78.07 H 5100.57 V 990.141 h 164.13 z m 487.98,0 v 450.69 h 95.83 V 990.141 h 182.74 V 911.18 Z m -3596.75,0 h -95.83 v 371.75 h -122.43 v 78.94 h 340.69 v -78.94 H 2155.93 V 911.18"
         style="fill:#ffffff;fill-opacity:1;fill-rule:nonzero;stroke:none"
         id="path48" />
    </g>
  </g>
</svg>
